<svg xmlns="http://www.w3.org/2000/svg" width="12" height="8" viewBox="0 0 12 8" fill="none">
  <path d="M7 0V2.25C9.7614 2.25 12 4.4886 12 7.25C12 7.38635 11.9945 7.5214 11.9838 7.655C11.2527 6.2682 9.81905 5.3095 8.1565 5.25265L8 5.25H6.99995L7 7.5L3 3.75L7 0ZM4 0V1.3685L1.46 3.75L3.9995 6.1305L4 7.5L0 3.75L4 0ZM6 2.30823L4.46211 3.75L5.99995 5.1917V4.25L8.01705 4.25015L8.1907 4.25325C8.83285 4.2752 9.45265 4.40825 10.0284 4.6367C9.2949 3.78745 8.2102 3.25 7 3.25H6V2.30823Z" fill="black"/>
</svg>
