<svg width="14" height="15" viewBox="0 0 14 15" fill="none" xmlns="http://www.w3.org/2000/svg">
<path d="M8.65006 5.02519L5.35021 8.32501C5.1224 8.5528 5.1224 8.92217 5.35021 9.14996C5.57801 9.37781 5.94736 9.37781 6.17516 9.14996L9.47502 5.85015C10.1584 5.16673 10.1584 4.05869 9.47502 3.37527C8.79158 2.69186 7.68354 2.69186 7.00011 3.37527L3.70029 6.67511C2.56126 7.81412 2.56126 9.66084 3.70029 10.7999C4.83932 11.9389 6.68604 11.9389 7.82506 10.7999L11.1249 7.50006L11.9499 8.32501L8.65006 11.6249C7.05541 13.2195 4.46997 13.2195 2.87533 11.6249C1.28069 10.0302 1.28069 7.44482 2.87533 5.85015L6.17516 2.55032C7.31417 1.41129 9.16095 1.41129 10.3 2.55032C11.439 3.68934 11.439 5.53607 10.3 6.67511L7.00011 9.97497C6.31673 10.6583 5.20867 10.6583 4.52525 9.97497C3.84183 9.29153 3.84183 8.18349 4.52525 7.50006L7.82506 4.20023L8.65006 5.02519Z" fill="white"/>
</svg>
