<svg width="16" height="16" viewBox="0 0 16 16" fill="none" xmlns="http://www.w3.org/2000/svg">
<path d="M2 1.33325H12.6699C13.4045 1.33325 14 1.93206 14 2.66045V13.3394C14 14.0724 13.4049 14.6666 12.6699 14.6666H2V1.33325ZM4.66667 2.66659H3.33333V13.3333H4.66667V2.66659ZM6 13.3333H12.6667V2.66659H6V13.3333ZM7.33333 10.6666C7.33333 9.56199 8.22873 8.66658 9.33333 8.66658C10.4379 8.66658 11.3333 9.56199 11.3333 10.6666H7.33333ZM9.33333 7.99992C8.59693 7.99992 8 7.40299 8 6.66658C8 5.9302 8.59693 5.33325 9.33333 5.33325C10.0697 5.33325 10.6667 5.9302 10.6667 6.66658C10.6667 7.40299 10.0697 7.99992 9.33333 7.99992ZM14.6667 3.99992H16V6.66658H14.6667V3.99992ZM14.6667 7.99992H16V10.6666H14.6667V7.99992Z" fill="black"/>
</svg>
