<svg xmlns="http://www.w3.org/2000/svg" width="14" height="14" viewBox="0 0 14 14" fill="none">
  <path d="M9.9165 3.49996H12.8332V4.66663H11.6665V12.25C11.6665 12.5721 11.4053 12.8333 11.0832 12.8333H2.9165C2.59434 12.8333 2.33317 12.5721 2.33317 12.25V4.66663H1.1665V3.49996H4.08317V1.74996C4.08317 1.4278 4.34434 1.16663 4.6665 1.16663H9.33317C9.65534 1.16663 9.9165 1.4278 9.9165 1.74996V3.49996ZM10.4998 4.66663H3.49984V11.6666H10.4998V4.66663ZM5.24984 6.41663H6.4165V9.91663H5.24984V6.41663ZM7.58317 6.41663H8.74984V9.91663H7.58317V6.41663ZM5.24984 2.33329V3.49996H8.74984V2.33329H5.24984Z" fill="black"/>
</svg>
