<svg xmlns="http://www.w3.org/2000/svg" width="16" height="16" viewBox="0 0 16 16" fill="none">
  <path fill-rule="evenodd" clip-rule="evenodd" d="M13.3333 1.33334C13.7013 1.33334 14 1.63201 14 2.00001V4.50468L12.6667 5.83801V2.66668H3.33333V13.3333H12.6667V11.4947L14 10.1613V14C14 14.368 13.7013 14.6667 13.3333 14.6667H2.66667C2.29867 14.6667 2 14.368 2 14V2.00001C2 1.63201 2.29867 1.33334 2.66667 1.33334H13.3333ZM14.5187 5.87201L15.4613 6.81468L10.276 12L9.332 11.9987L9.33333 11.0573L14.5187 5.87201ZM8.66667 8.00001V9.33334H5.33333V8.00001H8.66667ZM10.6667 5.33334V6.66668H5.33333V5.33334H10.6667Z" fill="white"/>
</svg>
