<svg width="9" height="10" viewBox="0 0 9 10" fill="none" xmlns="http://www.w3.org/2000/svg">
<path d="M1.9999 2V0.5C1.9999 0.22386 2.22376 0 2.4999 0H8.4999C8.77605 0 8.9999 0.22386 8.9999 0.5V7.5C8.9999 7.77615 8.77605 8 8.4999 8H6.9999V9.49955C6.9999 9.77595 6.77495 10 6.4965 10H0.50333C0.225295 10 0 9.7777 0 9.49955L0.00129998 2.50044C0.00134998 2.22406 0.22632 2 0.50471 2H1.9999ZM1.00121 3L1.00009 9H5.9999V3H1.00121ZM2.9999 2H6.9999V7H7.9999V1H2.9999V2ZM2 4.5H5V5.5H2V4.5ZM2 6.5H5V7.5H2V6.5Z" fill="#666666"/>
</svg>
