<svg xmlns="http://www.w3.org/2000/svg" width="16" height="16" viewBox="0 0 16 16" fill="none">
  <path d="M1.3335 14.6667C1.3335 11.7211 3.72131 9.33332 6.66683 9.33332C9.61236 9.33332 12.0002 11.7211 12.0002 14.6667H10.6668C10.6668 12.4575 8.87596 10.6667 6.66683 10.6667C4.45769 10.6667 2.66683 12.4575 2.66683 14.6667H1.3335ZM6.66683 8.66666C4.45683 8.66666 2.66683 6.87666 2.66683 4.66666C2.66683 2.45666 4.45683 0.666656 6.66683 0.666656C8.87683 0.666656 10.6668 2.45666 10.6668 4.66666C10.6668 6.87666 8.87683 8.66666 6.66683 8.66666ZM6.66683 7.33332C8.14016 7.33332 9.3335 6.13999 9.3335 4.66666C9.3335 3.19332 8.14016 1.99999 6.66683 1.99999C5.1935 1.99999 4.00016 3.19332 4.00016 4.66666C4.00016 6.13999 5.1935 7.33332 6.66683 7.33332ZM12.1893 9.80186C14.0431 10.6374 15.3335 12.5013 15.3335 14.6667H14.0002C14.0002 13.0427 13.0324 11.6447 11.642 11.0181L12.1893 9.80186ZM11.731 2.27546C13.0631 2.82468 14.0002 4.13573 14.0002 5.66666C14.0002 7.58012 12.5363 9.15012 10.6668 9.31839V7.97639C11.798 7.81479 12.6668 6.84266 12.6668 5.66666C12.6668 4.74622 12.1346 3.95068 11.3608 3.57089L11.731 2.27546Z" fill="#0063CB"/>
</svg>
