<svg xmlns="http://www.w3.org/2000/svg" width="16" height="16" viewBox="0 0 16 16" fill="none">
  <path d="M11.3334 8.66667C12.8061 8.66667 14 9.8606 14 11.3333C14 12.8061 12.8061 14 11.3334 14C9.86064 14 8.66671 12.8061 8.66671 11.3333H7.33337C7.33337 12.8061 6.13947 14 4.66671 14C3.19395 14 2.00004 12.8061 2.00004 11.3333C2.00004 9.8606 3.19395 8.66667 4.66671 8.66667C5.65372 8.66667 6.51549 9.20287 6.97657 9.99993H9.02351C9.48457 9.20287 10.3464 8.66667 11.3334 8.66667ZM4.66671 10C3.93033 10 3.33337 10.5969 3.33337 11.3333C3.33337 12.0697 3.93033 12.6667 4.66671 12.6667C5.40309 12.6667 6.00004 12.0697 6.00004 11.3333C6.00004 10.5969 5.40309 10 4.66671 10ZM11.3334 10C10.597 10 10 10.5969 10 11.3333C10 12.0697 10.597 12.6667 11.3334 12.6667C12.0698 12.6667 12.6667 12.0697 12.6667 11.3333C12.6667 10.5969 12.0698 10 11.3334 10ZM10.6667 2C12.1394 2 13.3334 3.19391 13.3334 4.66667V6.66667H14.6667V8H1.33337V6.66667H2.66671V4.66667C2.66671 3.19391 3.86061 2 5.33337 2H10.6667ZM10.6667 3.33333H5.33337C4.63047 3.33333 4.00004 3.96667 4.00004 4.66667V6.66667H12V4.66667C12 3.96376 11.3667 3.33333 10.6667 3.33333Z" fill="#666666"/>
</svg>
