<svg xmlns="http://www.w3.org/2000/svg" width="12" height="12" viewBox="0 0 12 12" fill="none">
  <g clip-path="url(#clip0_422_295)">
    <path
      d="M0.696777 1.40377L1.40389 0.696655L2.20723 1.5L2.5 1.79276L5.50007 4.79283L6.20735 5.5001L11.3034 10.5961L10.5963 11.3032L9.79301 10.5L9.29295 9.99994L8.79301 9.5L8.29295 8.99994L5.50017 6.20715L4.79296 5.49994L3.20388 3.91087L2.5 3.20698L1.5 2.20699L0.696777 1.40377Z"
      fill="#666666" />
    <path d="M8.79301 9.5H2.5V3.20698L1.5 2.20699V10.5H9.79301L9.29295 9.99994L8.79301 9.5Z"
      fill="#666666" />
    <path fill-rule="evenodd" clip-rule="evenodd"
      d="M4.35356 7.35355L3.64645 6.64645L4.79296 5.49994L5.49821 6.2091L4.35356 7.35355Z"
      fill="#666666" />
    <path fill-rule="evenodd" clip-rule="evenodd"
      d="M10.1465 3.14645L10.8535 3.85355L8 6.7071L6.5 5.2075L5.79076 4.50217L6.5 3.7929L8 5.2925L10.1465 3.14645ZM5.50007 4.79283L4.79296 5.49994L5.50017 6.20715L6.20735 5.5001L5.50007 4.79283Z"
      fill="#666666" />
  </g>
  <defs>
    <clipPath id="clip0_422_295">
      <rect width="12" height="12" fill="white" />
    </clipPath>
  </defs>
</svg>
