<svg xmlns="http://www.w3.org/2000/svg" width="14" height="14" viewBox="0 0 14 14" fill="none">
  <path fill-rule="evenodd" clip-rule="evenodd" d="M10.6128 8.96256L9.78792 8.13656L10.6128 7.31173C11.355 6.576 11.6468 5.4994 11.3778 4.48955C11.1088 3.47969 10.32 2.69095 9.31018 2.42194C8.30033 2.15293 7.22373 2.44477 6.488 3.18698L5.66317 4.0124L4.83775 3.18756L5.66375 2.36273C7.25847 0.768006 9.84403 0.768006 11.4388 2.36273C13.0335 3.95745 13.0335 6.54301 11.4388 8.13773L10.6133 8.96256H10.6128ZM8.96308 10.6122L8.13767 11.4371C6.54295 13.0318 3.95739 13.0318 2.36267 11.4371C0.767945 9.84234 0.767945 7.25678 2.36267 5.66206L3.18808 4.83723L4.01292 5.66323L3.18808 6.48806C2.44588 7.22379 2.15403 8.30039 2.42304 9.31024C2.69205 10.3201 3.4808 11.1088 4.49065 11.3779C5.5005 11.6469 6.5771 11.355 7.31283 10.6128L8.13767 9.78798L8.96308 10.6128V10.6122ZM8.55008 4.42481L9.3755 5.25023L5.25075 9.37439L4.42533 8.54956L8.55008 4.4254V4.42481Z" fill="#000091"/>
</svg>
