<svg xmlns="http://www.w3.org/2000/svg" width="12" height="12" viewBox="0 0 12 12" fill="none">
  <g clip-path="url(#clip0_412_512)">
    <path
      d="M9.29295 9.99994H2.00008C1.86201 9.99994 1.75008 9.88804 1.75008 9.74994C1.75008 9.69584 1.76763 9.64324 1.80008 9.59994L2.00008 9.33329V4.99994C2.00008 4.33505 2.16231 3.70804 2.44935 3.15634L0.696777 1.40377L1.40389 0.696655L11.3034 10.5961L10.5963 11.3032L9.29295 9.99994ZM3.20388 3.91087C3.07229 4.24848 3.00008 4.61579 3.00008 4.99994V8.99994H8.29295L3.20388 3.91087ZM10.0001 7.89284L9.0001 6.89284V4.99994C9.0001 3.34311 7.65695 1.99996 6.0001 1.99996C5.45585 1.99996 4.94548 2.14487 4.50544 2.39822L3.7796 1.67237C4.41485 1.24763 5.17855 0.999955 6.0001 0.999955C8.2092 0.999955 10.0001 2.79082 10.0001 4.99994V7.89284ZM4.75008 10.4999H7.2501C7.2501 11.1903 6.69045 11.7499 6.0001 11.7499C5.3097 11.7499 4.75008 11.1903 4.75008 10.4999Z"
      fill="#666666" />
  </g>
  <defs>
    <clipPath id="clip0_412_512">
      <rect width="12" height="12" fill="white" />
    </clipPath>
  </defs>
</svg>
