<svg xmlns="http://www.w3.org/2000/svg" width="12" height="12" viewBox="0 0 12 12" fill="none">
  <path
    d="M9 5C9 3.34315 7.65685 2 6 2C4.34315 2 3 3.34315 3 5V9H9V5ZM10 9.33335L10.2 9.6C10.2828 9.71045 10.2604 9.86715 10.15 9.95C10.1067 9.98245 10.0541 10 10 10H2C1.86193 10 1.75 9.88805 1.75 9.75C1.75 9.6959 1.76754 9.64325 1.8 9.6L2 9.33335V5C2 2.79086 3.79086 1 6 1C8.20915 1 10 2.79086 10 5V9.33335ZM4.75 10.5H7.25C7.25 11.1903 6.69035 11.75 6 11.75C5.30965 11.75 4.75 11.1903 4.75 10.5Z"
    fill="#666666" />
</svg>
