<svg xmlns="http://www.w3.org/2000/svg" width="14" height="14" viewBox="0 0 14 14" fill="none">
  <path fill-rule="evenodd" clip-rule="evenodd" d="M5.83332 8.16667C8.41065 8.16667 10.5 10.256 10.5 12.8333H9.33332C9.33332 10.9003 7.76632 9.33334 5.83332 9.33334C3.90033 9.33334 2.33332 10.9003 2.33332 12.8333H1.16666C1.16666 10.256 3.25599 8.16667 5.83332 8.16667ZM10.6657 8.57675C12.3402 9.3309 13.4168 10.9968 13.4167 12.8333H12.25C12.2503 11.4559 11.4427 10.2063 10.1867 9.64075L10.6651 8.57675H10.6657ZM10.2643 1.99092C11.4663 2.48637 12.2505 3.65824 12.25 4.95834C12.2505 6.61751 10.9857 8.00328 9.33332 8.15384V6.97959C10.2206 6.85251 10.9212 6.16161 11.0607 5.27621C11.2001 4.39082 10.7458 3.518 9.94057 3.12434L10.2643 1.99092ZM5.83332 0.583336C7.76707 0.583336 9.33332 2.14959 9.33332 4.08334C9.33332 6.01709 7.76707 7.58334 5.83332 7.58334C3.89957 7.58334 2.33332 6.01709 2.33332 4.08334C2.33332 2.14959 3.89957 0.583336 5.83332 0.583336ZM5.83332 1.75C4.54416 1.75 3.49999 2.79417 3.49999 4.08334C3.49999 5.3725 4.54416 6.41667 5.83332 6.41667C7.12249 6.41667 8.16666 5.3725 8.16666 4.08334C8.16666 2.79417 7.12249 1.75 5.83332 1.75Z" fill="#161616"/>
</svg>
