<svg width="12" height="11" viewBox="0 0 12 11" fill="none" xmlns="http://www.w3.org/2000/svg">
<path d="M5.852 1.05011L10.8018 1.75721L11.5089 6.70698L6.91265 11.3031C6.7174 11.4984 6.40085 11.4984 6.20555 11.3031L1.25582 6.35343C1.06056 6.15813 1.06056 5.84158 1.25582 5.64628L5.852 1.05011ZM6.20555 2.11077L2.31648 5.99983L6.5591 10.2425L10.4482 6.35343L9.9179 2.6411L6.20555 2.11077ZM7.26625 5.29273C6.8757 4.90222 6.8757 4.26906 7.26625 3.87853C7.65675 3.48801 8.2899 3.48801 8.68045 3.87853C9.07095 4.26906 9.07095 4.90222 8.68045 5.29273C8.2899 5.68328 7.65675 5.68328 7.26625 5.29273Z" fill="#666666"/>
</svg>
