<svg xmlns="http://www.w3.org/2000/svg" width="12" height="12" viewBox="0 0 12 12" fill="none" aria-hidden="true">
    <g clip-path="url(#clip0_61_959)">
    <path d="M5.5 2.53544C3.96715 2.7547 2.7547 3.96715 2.53544 5.5H3.5V6.5H2.53544C2.7547 8.03285 3.96715 9.2453 5.5 9.46455V8.5H6.5V9.46455C8.03285 9.2453 9.2453 8.03285 9.46455 6.5H8.5V5.5H9.46455C9.2453 3.96715 8.03285 2.7547 6.5 2.53544V3.5H5.5V2.53544ZM1.52746 5.5C1.75804 3.41419 3.41419 1.75804 5.5 1.52746V0.5H6.5V1.52746C8.5858 1.75804 10.242 3.41419 10.4726 5.5H11.5V6.5H10.4726C10.242 8.5858 8.5858 10.242 6.5 10.4726V11.5H5.5V10.4726C3.41419 10.242 1.75804 8.5858 1.52746 6.5H0.5V5.5H1.52746ZM7 6C7 6.5523 6.5523 7 6 7C5.4477 7 5 6.5523 5 6C5 5.4477 5.4477 5 6 5C6.5523 5 7 5.4477 7 6Z" fill="#666666"/>
    </g>
    <defs>
    <clipPath id="clip0_61_959">
        <rect width="12" height="12" fill="white"/>
    </clipPath>
    </defs>
</svg>
