<svg viewBox="0 0 135 135" fill="none" xmlns="http://www.w3.org/2000/svg" aria-hidden="true">
  <path fill-rule="evenodd" clip-rule="evenodd"
    d="M114.496 118.55C113.697 118.756 112.879 118.274 112.673 117.475C112.466 116.676 112.948 115.859 113.747 115.653C114.546 115.446 115.364 115.928 115.57 116.727C115.777 117.526 115.294 118.344 114.496 118.55Z"
    fill="#EEEEEE" />
  <path fill-rule="evenodd" clip-rule="evenodd"
    d="M100.648 17.0366C99.8487 17.2429 99.0309 16.7608 98.8246 15.9619C98.6183 15.1629 99.1005 14.3452 99.8994 14.139C100.698 13.9327 101.516 14.4147 101.722 15.2137C101.929 16.0126 101.446 16.8304 100.648 17.0366Z"
    fill="#EEEEEE" />
  <path fill-rule="evenodd" clip-rule="evenodd"
    d="M17.4109 47.8014C16.612 48.0077 15.7942 47.5256 15.5879 46.7267C15.3817 45.9277 15.8638 45.11 16.6627 44.9037C17.4616 44.6975 18.2793 45.1795 18.4856 45.9785C18.6919 46.7774 18.2098 47.5951 17.4109 47.8014Z"
    fill="#EEEEEE" />
  <path
    d="M57.4678 65.2762C57.2612 64.4761 56.4451 63.9949 55.6449 64.2015C54.8447 64.4081 54.3636 65.2243 54.5702 66.0244C54.7768 66.8246 55.5929 67.3058 56.3931 67.0992C57.1933 66.8926 57.6744 66.0764 57.4678 65.2762Z"
    fill="#000091" />
  <path
    d="M50.241 69.1053C49.4985 68.6973 48.5436 68.99 48.1705 69.7784L43.1709 80.3419L43.1066 80.4988C42.7232 81.5998 43.725 82.7336 44.8975 82.4308L53.5905 80.1862L53.757 80.1329C54.4559 79.8631 54.8571 79.1063 54.6653 78.3633L54.6119 78.1969C54.3422 77.4979 53.5854 77.0967 52.8423 77.2886L47.2426 78.7345L50.1074 72.6816L53.4466 75.0826L53.6058 75.1827C54.2588 75.5384 55.0897 75.3606 55.5351 74.7412C56.0175 74.0702 55.8647 73.1352 55.1937 72.6528L50.3966 69.2036L50.241 69.1053Z"
    fill="#000091" />
  <path
    d="M74.2779 109.104C73.9989 109.006 73.6974 108.994 73.4114 109.068L44.4347 116.55L44.2682 116.603C43.5693 116.873 43.1681 117.63 43.3599 118.373L43.4133 118.539C43.6831 119.238 44.4399 119.639 45.1829 119.447L73.7322 112.076L73.9016 112.133C77.3383 113.229 80.5796 113.399 83.6008 112.619L84.1311 112.471C86.945 111.633 89.5217 109.967 91.8523 107.498L91.9715 107.366L120.522 99.9944L120.689 99.941C121.388 99.6712 121.789 98.9144 121.597 98.1714C121.39 97.3713 120.574 96.8901 119.774 97.0967L90.7974 104.579L90.6294 104.633C90.4107 104.718 90.2142 104.853 90.0565 105.029C87.846 107.499 85.449 109.05 82.8526 109.721C80.2561 110.391 77.4076 110.194 74.2779 109.104Z"
    fill="#000091" />
  <path
    d="M59.8722 72.8352C60.2597 72.1781 61.0711 71.9257 61.7536 72.2209L61.9212 72.3061L65.5671 74.4556C66.279 74.8753 66.5158 75.7927 66.0961 76.5046C65.7087 77.1617 64.8972 77.4141 64.2148 77.1189L64.0472 77.0336L61.6906 75.6452L60.3008 78.001C59.9134 78.6581 59.1019 78.9105 58.4194 78.6153L58.2518 78.53C57.5947 78.1426 57.3423 77.3311 57.6375 76.6487L57.7228 76.4811L59.8722 72.8352Z"
    fill="#000091" />
  <path
    d="M95.0424 43.2107C94.8358 42.4106 94.0197 41.9294 93.2195 42.136C91.6992 42.5286 89.9436 43.1327 87.9502 43.9486L86.8393 44.4147C86.272 44.6582 85.687 44.9175 85.0842 45.1926L83.8548 45.7637L82.578 46.3769L81.2535 47.0321L79.8813 47.7295C79.6486 47.8492 79.414 47.9707 79.1773 48.0939L77.7334 48.8543L76.2414 49.6568C75.5153 50.0513 75.2464 50.9598 75.6409 51.686C76.0354 52.4122 76.9439 52.681 77.6701 52.2865C77.9159 52.153 78.1598 52.0211 78.4016 51.891L79.8287 51.1311L81.2077 50.4128C81.4335 50.2965 81.6573 50.182 81.8791 50.0691L83.1858 49.4131L84.444 48.7985L85.6539 48.2255L86.8152 47.694C87.0047 47.6089 87.1921 47.5256 87.3776 47.4439L88.4659 46.9748C88.8205 46.8254 89.167 46.6829 89.5054 46.5473L90.496 46.1613C91.7842 45.6745 92.9418 45.2986 93.9677 45.0337C94.7679 44.8271 95.249 44.0109 95.0424 43.2107Z"
    fill="#929292" />
  <path
    d="M95.4641 50.829C96.2642 50.6224 97.0804 51.1036 97.287 51.9037C97.4936 52.7039 97.0124 53.5201 96.2123 53.7267C95.1863 53.9916 94.0288 54.3675 92.7406 54.8544L91.75 55.2403C91.4116 55.3759 91.0651 55.5184 90.7105 55.6678L89.6222 56.1369C89.4367 56.2186 89.2493 56.3019 89.0598 56.3871L87.8985 56.9185L86.6886 57.4915L85.4303 58.1061L84.1237 58.7621C83.9019 58.875 83.6781 58.9895 83.4523 59.1058L82.0733 59.8241L80.6462 60.584C80.4044 60.7141 80.1605 60.846 79.9147 60.9795C79.1885 61.374 78.28 61.1052 77.8855 60.379C77.491 59.6528 77.7599 58.7444 78.486 58.3498L79.9779 57.5473L81.4219 56.7869C81.6586 56.6637 81.8932 56.5422 82.1259 56.4225L83.4981 55.7252L84.8226 55.0699L86.0994 54.4567L87.3288 53.8856C87.9316 53.6105 88.5166 53.3512 89.0839 53.1077L90.1948 52.6416C92.1882 51.8257 93.9438 51.2216 95.4641 50.829Z"
    fill="#929292" />
  <path
    d="M99.5316 60.5968C99.325 59.7966 98.5088 59.3154 97.7087 59.522C96.1883 59.9146 94.4328 60.5187 92.4394 61.3346L91.3284 61.8007C90.7612 62.0442 90.1761 62.3035 89.5733 62.5786L88.344 63.1497L87.0672 63.7629L85.7427 64.4182L84.3705 65.1155C84.1378 65.2352 83.9031 65.3567 83.6665 65.4799L82.2225 66.2403L80.7306 67.0428C80.0044 67.4374 79.7356 68.3458 80.1301 69.072C80.5246 69.7982 81.4331 70.067 82.1593 69.6725C82.4051 69.539 82.649 69.4071 82.8908 69.277L84.3179 68.5171L85.6969 67.7988C85.9227 67.6825 86.1465 67.568 86.3683 67.4552L87.6749 66.7991L88.9332 66.1845L90.143 65.6115L91.3043 65.0801C91.4938 64.995 91.6813 64.9116 91.8668 64.8299L92.955 64.3608C93.3097 64.2114 93.6562 64.0689 93.9945 63.9333L94.9852 63.5474C96.2734 63.0605 97.4309 62.6846 98.4569 62.4197C99.257 62.2131 99.7382 61.3969 99.5316 60.5968Z"
    fill="#929292" />
  <path fill-rule="evenodd" clip-rule="evenodd"
    d="M76.4758 104.733C77.7094 102.641 79.0737 101.442 80.5602 101.04C80.5696 101.038 80.5789 101.036 80.5883 101.034C80.595 101.032 80.6018 101.03 80.6085 101.029L80.6137 101.027C80.6278 101.024 80.6418 101.02 80.6557 101.016C82.1508 100.647 83.925 101.036 86.0175 102.269C86.3593 102.471 86.7673 102.528 87.1515 102.429L101.64 98.6881L101.806 98.6347C102.505 98.365 102.906 97.6082 102.715 96.8652L102.661 96.6987C102.391 95.9998 101.635 95.5986 100.892 95.7904L86.9858 99.381L86.6759 99.2156C86.2307 98.9866 85.7904 98.7868 85.355 98.6165L85.4375 98.5795L86.3442 98.182L87.2996 97.7793L88.3034 97.3714L89.3556 96.9583L90.4563 96.54L91.6055 96.1166L92.803 95.688L94.0488 95.2543L95.343 94.8156L96.6855 94.3718L98.7897 93.6966L101.002 93.01L102.538 92.5461L104.121 92.0772L105.753 91.6033L108.291 90.8833L110.936 90.1522L113.69 89.4101L116.552 88.657C116.876 88.5728 117.202 88.4883 117.529 88.4036C118.33 88.197 118.811 87.3808 118.604 86.5807L104.706 32.7561L108.541 35.63L115.516 62.6511C115.708 63.3941 116.426 63.8621 117.168 63.7597L117.339 63.7258C118.082 63.534 118.55 62.8166 118.448 62.0744L118.414 61.9029L111.306 34.375C111.238 34.1119 111.1 33.8734 110.909 33.6842L110.755 33.5519L103.123 27.8294C102.792 27.5661 102.352 27.4451 101.906 27.5314C86.085 30.5983 73.9761 35.702 65.5937 42.8795C54.7844 40.6574 41.7183 42.054 26.3898 47.0303C25.9578 47.1705 25.6314 47.4899 25.4691 47.8814L21.5622 56.5821L21.4919 56.7722C21.4158 57.0305 21.4104 57.3059 21.4784 57.5691L23.3489 64.8133L23.4023 64.9797C23.672 65.6787 24.4288 66.0799 25.1718 65.888L25.3383 65.8347C26.0372 65.5649 26.4384 64.8081 26.2466 64.0651L24.5056 57.3284L26.4694 52.9575L40.3672 106.782C40.5738 107.582 41.3899 108.063 42.1901 107.857C42.518 107.772 42.8441 107.688 43.1684 107.605L46.0369 106.878L48.8057 106.195L51.4746 105.553L54.0436 104.955L55.7007 104.58L57.3133 104.223L58.8813 103.886L61.1498 103.415L63.3179 102.987L64.7074 102.726L66.0522 102.483L67.3523 102.26L68.6076 102.055L69.818 101.869L70.9836 101.702L72.1044 101.554L73.1802 101.425L74.211 101.315L75.1969 101.224L75.287 101.216C74.9885 101.576 74.6999 101.964 74.4212 102.38L74.2288 102.675L38.5918 111.877L37.4695 107.53L37.4161 107.364C37.1464 106.665 36.3896 106.264 35.6466 106.455C34.8464 106.662 34.3652 107.478 34.5718 108.278L36.0682 114.074L36.1216 114.24C36.3913 114.939 37.1481 115.34 37.8911 115.148L75.5608 105.422L75.748 105.36C76.0513 105.237 76.3078 105.018 76.4758 104.733ZM78.2965 98.0609L64.7949 45.771L64.2895 45.6727C54.6477 43.857 42.9923 45.0355 29.3279 49.2399L28.6544 49.4495L42.8911 104.586L44.4079 104.202L47.3106 103.479L50.1085 102.802L51.9155 102.375L53.6761 101.968L56.2298 101.396L57.8742 101.04L59.4722 100.704L61.0239 100.387L62.5293 100.091L63.9885 99.8152L65.4014 99.5592L66.7681 99.3233L68.0886 99.1075L69.3631 98.9119L70.5914 98.7363L71.7737 98.5808L72.91 98.4454C73.0955 98.4245 73.2792 98.4045 73.4609 98.3852L74.5282 98.28L75.5496 98.1949L76.5252 98.1299L77.4548 98.085L78.2965 98.0609ZM81.9423 96.9263L81.1941 97.3127L67.6926 45.0228L68.0873 44.6921C75.6447 38.4354 86.4137 33.8238 100.405 30.8872L101.096 30.7446L115.333 85.8815L113.819 86.2794L110.93 87.0524L108.154 87.814L106.366 88.3156L104.629 88.8122L102.117 89.5478L100.506 90.0321L98.9447 90.5116L97.4338 90.9861L95.9732 91.4558L94.5629 91.9207L93.2027 92.3807L91.8926 92.836L90.6327 93.2865L89.4228 93.7323L88.263 94.1734L87.1532 94.6097L86.0935 95.0414C85.921 95.1129 85.7506 95.1843 85.5823 95.2554L84.5974 95.6801L83.6625 96.1001L82.7775 96.5155L81.9423 96.9263Z"
    fill="#929292" />
  <path
    d="M120.605 70.4295C120.335 69.7305 119.579 69.3293 118.836 69.5212L118.669 69.5746C117.97 69.8443 117.569 70.6011 117.761 71.3441L122.624 90.179L112.482 92.7977L112.316 92.851C111.617 93.1208 111.216 93.8776 111.408 94.6206C111.614 95.4208 112.43 95.9019 113.231 95.6953L124.821 92.7025L124.988 92.6492C125.687 92.3794 126.088 91.6226 125.896 90.8796L120.659 70.5959L120.605 70.4295Z"
    fill="#929292" />
  <path
    d="M26.6682 71.6834C27.4112 71.4915 28.168 71.8927 28.4378 72.5917L28.4911 72.7581L35.2249 98.8371C35.4315 99.6373 34.9503 100.453 34.1502 100.66C33.4071 100.852 32.6504 100.451 32.3806 99.7518L32.3272 99.5853L25.5935 73.5063C25.3869 72.7061 25.868 71.89 26.6682 71.6834Z"
    fill="#929292" />
</svg>
