<svg width="107" height="109" viewBox="0 0 107 109" fill="none" xmlns="http://www.w3.org/2000/svg">
<rect width="39.6" height="14.4" transform="translate(14.4 14.4)" fill="white"/>
<path d="M26.7874 26.8597C26.7922 26.8597 26.797 26.8526 26.797 26.8526C26.8352 26.8244 26.8735 26.7891 26.9069 26.7468C26.9021 26.7468 26.8974 26.7468 26.8926 26.7397C26.8591 26.775 26.8209 26.8174 26.7874 26.8597Z" fill="#000091"/>
<path d="M32.0833 25.0754L31.9997 25.1474C32.0475 25.1354 32.0833 25.1234 32.0833 25.0754Z" fill="#000091"/>
<path fill-rule="evenodd" clip-rule="evenodd" d="M30.3711 26.8981C30.5245 26.7438 30.6779 26.5802 30.8313 26.4119H30.8266C31.1148 26.0846 31.3937 25.7713 31.7284 25.4861C31.8307 25.3926 31.9283 25.3132 32.0212 25.2477C32.0349 25.234 32.0419 25.2135 32.0487 25.1935C32.0558 25.1726 32.0628 25.1521 32.077 25.1402C32.0108 25.1655 31.958 25.2054 31.9049 25.2456C31.8499 25.2872 31.7947 25.3291 31.7238 25.3552C31.6959 25.3552 31.668 25.3272 31.6959 25.2991C31.7935 25.229 31.8911 25.1542 31.9841 25.0794H31.9655C31.9376 25.0794 31.9376 25.0513 31.9376 25.0233C31.5915 24.9683 31.3258 25.205 31.0879 25.4168L31.073 25.43C31.036 25.4487 31.001 25.4302 30.9735 25.4157C30.9596 25.4083 30.9476 25.402 30.9382 25.402C30.7277 25.4726 30.5462 25.6027 30.3634 25.7336C30.1951 25.8543 30.0258 25.9756 29.8319 26.0519V25.9958C29.7661 26.0185 29.701 26.0481 29.6358 26.0777C29.5398 26.1214 29.4435 26.1652 29.3439 26.1874C29.1619 26.2297 28.9932 26.2242 28.8297 26.2189C28.776 26.2172 28.7227 26.2155 28.6699 26.2155C28.3722 26.245 28.0782 26.3088 27.7847 26.3725L27.6891 26.3932C27.6844 26.3955 27.6798 26.3967 27.6751 26.3978C27.6705 26.399 27.6658 26.4002 27.6612 26.4025C27.4846 26.4493 27.3219 26.5147 27.1592 26.6082L27.1406 26.6176C27.1342 26.6261 27.1278 26.6337 27.1219 26.6408C27.1148 26.6491 27.1084 26.6567 27.1034 26.6643C27.0476 26.7298 26.9965 26.7859 26.9175 26.828C26.8008 26.8866 26.6999 26.9772 26.6007 27.0662C26.5577 27.1048 26.5148 27.1433 26.4712 27.1786C26.4619 27.188 26.4434 27.1926 26.4294 27.1926C26.2853 27.3329 26.1412 27.4732 25.9925 27.6087C25.9832 27.6181 25.9413 27.6228 25.9088 27.6181C25.9088 27.6181 25.9135 27.6181 25.9135 27.6134L25.9274 27.5854L25.9971 27.4731C26.0111 27.4521 26.0238 27.4311 26.0366 27.41C26.0494 27.389 26.0622 27.368 26.0761 27.3469C26.1133 27.2909 26.1505 27.2347 26.1923 27.1833C26.2016 27.1693 26.2016 27.1552 26.1923 27.1459C26.183 27.1365 26.1691 27.1318 26.1552 27.1318C26.29 27.0009 26.448 26.8887 26.6107 26.7906V26.7859C26.5921 26.7906 26.5642 26.7765 26.5782 26.7578C26.5918 26.7407 26.6029 26.721 26.6134 26.7025L26.6246 26.683C26.627 26.6783 26.6281 26.6748 26.6293 26.6713C26.6304 26.6678 26.6316 26.6643 26.6339 26.6596C26.6316 26.655 26.6281 26.6515 26.6246 26.648C26.6211 26.6445 26.6177 26.6409 26.6153 26.6363L26.5871 26.6549C26.5535 26.6769 26.5188 26.6996 26.4898 26.7251C26.4693 26.7428 26.4502 26.767 26.4305 26.7919C26.3879 26.8458 26.3428 26.9028 26.276 26.9028C26.2714 26.9028 26.2481 26.9028 26.2342 26.8981C26.2202 26.8981 26.2109 26.8934 26.2063 26.8887C26.2063 26.8864 26.2063 26.8852 26.2069 26.8846C26.2075 26.8841 26.2086 26.8841 26.2109 26.8841C26.2109 26.8841 26.2156 26.8794 26.2156 26.8747C26.2156 26.8747 26.2156 26.87 26.2202 26.87C26.2226 26.8654 26.2249 26.8619 26.2272 26.8583C26.2295 26.8548 26.2319 26.8513 26.2342 26.8467C26.2365 26.842 26.2388 26.8385 26.2412 26.835C26.2435 26.8315 26.2458 26.828 26.2481 26.8233C26.2504 26.8209 26.2516 26.8174 26.2528 26.8139C26.2539 26.8104 26.2551 26.8069 26.2574 26.8046L26.2627 26.7949C26.2673 26.7867 26.2728 26.777 26.276 26.7672C26.2783 26.7625 26.2807 26.759 26.283 26.7555C26.2853 26.752 26.2876 26.7485 26.29 26.7438C26.2969 26.7344 26.3027 26.7239 26.3086 26.7134C26.3144 26.7029 26.3202 26.6924 26.3271 26.683C26.3318 26.6737 26.3364 26.6643 26.3457 26.655C26.3504 26.6456 26.355 26.6374 26.3597 26.6293C26.3643 26.6211 26.369 26.6129 26.3736 26.6035C26.3876 26.5802 26.3736 26.5615 26.355 26.5568C26.4062 26.4913 26.4666 26.4352 26.541 26.3932H26.5317C26.5958 26.3609 26.6618 26.3231 26.7274 26.2855C26.7661 26.2634 26.8052 26.241 26.8431 26.2202C26.857 26.2061 26.871 26.1921 26.8896 26.1828C26.7362 26.2342 26.5967 26.3043 26.4619 26.3978C26.4619 26.3978 26.4248 26.4119 26.4155 26.4212C26.4155 26.4212 26.3876 26.4306 26.3504 26.3978C26.3457 26.3932 26.3457 26.3885 26.3457 26.3791C26.3619 26.3466 26.3952 26.3251 26.4312 26.3018C26.4574 26.285 26.485 26.2671 26.5084 26.2435C26.5363 26.2435 26.5596 26.2435 26.5596 26.2716C27.0949 25.8518 27.755 25.7547 28.4173 25.6573C28.8247 25.5974 29.2329 25.5373 29.6135 25.402C29.653 25.3739 29.6936 25.3471 29.7343 25.3202C29.775 25.2933 29.8157 25.2664 29.8552 25.2384C29.923 25.2101 29.9837 25.1618 30.048 25.1106C30.1116 25.0601 30.1787 25.0067 30.2596 24.9672C30.4734 24.8036 30.6361 24.6165 30.7197 24.3407C30.7197 24.3126 30.6918 24.2846 30.6918 24.2846C30.3386 24.6633 29.9342 24.9625 29.5019 25.1823C29.0897 25.3997 28.648 25.432 28.2108 25.4639C28.0465 25.4759 27.8828 25.4878 27.7216 25.5095C27.7495 25.4534 27.8053 25.4534 27.8564 25.4534C27.8564 25.387 27.8882 25.3585 27.9291 25.3218C27.94 25.312 27.9516 25.3016 27.9633 25.2898H28.0423C28.0563 25.2898 28.0633 25.2758 28.0702 25.2617C28.0772 25.2477 28.0842 25.2337 28.0981 25.2337C28.1539 25.2337 28.2329 25.2056 28.205 25.2056C28.1624 25.1508 28.1004 25.1725 28.0321 25.1965C27.9663 25.2195 27.8946 25.2446 27.8285 25.2056C27.8531 25.1787 27.8605 25.1463 27.8672 25.1168C27.8745 25.085 27.881 25.0566 27.9075 25.042H28.0145C28.0145 24.9859 28.0702 24.9345 28.0702 24.9345C28.3127 24.7887 28.5467 24.6615 28.7765 24.5366C28.9299 24.4532 29.0815 24.3707 29.2323 24.2846C29.2018 24.2846 29.1748 24.2971 29.1485 24.3093C29.1068 24.3287 29.067 24.3471 29.0185 24.3126C29.0464 24.3126 29.0464 24.2928 29.0464 24.2729C29.0464 24.253 29.0464 24.2332 29.0743 24.2332C29.2486 24.1866 29.4039 24.1111 29.5624 24.034C29.6743 23.9795 29.7878 23.9243 29.9109 23.8778C29.8744 23.8778 29.8406 23.8877 29.8076 23.8973C29.7441 23.9157 29.6838 23.9332 29.6135 23.8778C29.6319 23.8686 29.6468 23.8567 29.6615 23.845C29.6913 23.8214 29.7202 23.7984 29.7761 23.7984V23.7189C29.7761 23.6908 29.804 23.6908 29.8319 23.6908C29.804 23.6908 29.7761 23.6628 29.7761 23.6628C29.7909 23.6331 29.82 23.627 29.8524 23.6202C29.8812 23.6141 29.9126 23.6075 29.9388 23.5833C29.9109 23.5833 29.8598 23.5833 29.8598 23.5553C29.9388 23.4477 30.0736 23.4197 30.2084 23.3916C30.1945 23.3636 30.1678 23.3636 30.1445 23.3636C30.1213 23.3636 30.1015 23.3636 30.1015 23.3355C30.1015 23.3075 30.1294 23.3075 30.1573 23.3075H30.1015C30.0577 23.2854 30.0655 23.2462 30.0709 23.219C30.0723 23.2115 30.0736 23.205 30.0736 23.1999C30.1828 23.0713 30.2187 22.9194 30.2544 22.7685C30.2719 22.6945 30.2894 22.6208 30.3153 22.5501C30.2875 22.5501 30.2596 22.5501 30.2596 22.522C29.9982 22.8121 29.5839 22.922 29.1904 23.0264L29.1533 23.0363H29.0185C28.8837 23.0924 28.6931 23.0924 28.5583 23.0082C28.4942 22.9746 28.4485 22.9326 28.3991 22.8872C28.3661 22.8568 28.3315 22.825 28.2887 22.7932C28.0702 22.6576 27.8564 22.5501 27.6147 22.4659C26.9407 22.2508 26.2388 22.1386 25.5369 22.1667C25.7329 22.0589 25.9411 22.016 26.152 21.9726C26.2612 21.9501 26.3711 21.9274 26.4805 21.8955C26.5496 21.8752 26.6179 21.8542 26.686 21.8334C27.0715 21.7152 27.4455 21.6005 27.8564 21.6244C27.8026 21.6053 27.7338 21.6122 27.6704 21.6185C27.6406 21.6215 27.6121 21.6244 27.5868 21.6244C27.2761 21.6012 26.9622 21.6704 26.6348 21.7426C26.5654 21.7579 26.4954 21.7733 26.4248 21.788C26.2965 21.8147 26.1745 21.853 26.0524 21.8914C25.9178 21.9337 25.783 21.9761 25.6392 22.0031C25.5768 22.0246 25.5268 22.0612 25.478 22.0968C25.3995 22.1542 25.3244 22.2092 25.2069 22.1947V22.1106C25.4765 21.7833 25.8019 21.4607 26.2342 21.4327C26.652 21.3646 27.0461 21.4131 27.4571 21.4637C27.5261 21.4722 27.5956 21.4807 27.6658 21.4888C28.0028 21.5159 28.318 21.591 28.6577 21.672L28.6931 21.6805C28.7675 21.6805 28.8093 21.7459 28.8498 21.8093C28.8827 21.8608 28.9148 21.911 28.9627 21.9236C29.0289 21.9464 29.0951 21.9507 29.1612 21.9549C29.2577 21.9611 29.3543 21.9673 29.4508 22.0311C29.4508 22.0122 29.4476 21.9939 29.4445 21.9757C29.4383 21.9399 29.4323 21.9047 29.4508 21.8675C29.5107 21.8072 29.5795 21.8233 29.6472 21.8393C29.7001 21.8517 29.7524 21.8641 29.7994 21.8394C29.9468 21.7479 29.8085 21.6075 29.6701 21.467C29.6034 21.3992 29.5367 21.3314 29.5019 21.269C29.5019 21.241 29.5298 21.2129 29.5298 21.2129C29.5908 21.2677 29.6477 21.3243 29.7041 21.3804C29.8452 21.5209 29.9833 21.6584 30.1759 21.7553C30.3107 21.8114 30.6361 21.8908 30.5803 21.7272C30.4848 21.5153 30.3217 21.3315 30.1571 21.146C30.0892 21.0695 30.0212 20.9928 29.9574 20.9137V20.8062C29.9151 20.8062 29.9049 20.79 29.8922 20.7699C29.8882 20.7636 29.884 20.7568 29.8784 20.7501V20.6425C29.8103 20.6068 29.795 20.5501 29.7796 20.4932C29.7709 20.4608 29.7621 20.4283 29.7436 20.3994C29.697 20.3239 29.6937 20.231 29.6902 20.1353C29.6875 20.0591 29.6847 19.981 29.6599 19.9085C29.6042 19.7449 29.5809 19.6093 29.553 19.4457C29.5228 19.2783 29.4895 19.1182 29.4569 18.9615C29.3993 18.6849 29.344 18.4188 29.3113 18.1413C29.2683 17.7446 29.4686 17.4091 29.6734 17.0662C29.7341 16.9645 29.7952 16.8622 29.8505 16.7574C30.0411 16.4301 30.2549 16.1075 30.6082 15.8878C30.6853 15.5686 30.895 15.3028 31.1037 15.0382L31.1195 15.0182C31.3254 14.7615 31.6694 14.6046 31.9229 14.4889L31.9515 14.4758C32.328 14.3075 32.6674 14.2 32.672 14.2H14V28.5952H27.2475C27.6018 28.3384 27.9539 28.1763 28.3731 27.9834C28.5643 27.8954 28.7695 27.801 28.9952 27.6882C29.043 27.6642 29.0999 27.6362 29.1629 27.6052C29.5412 27.4191 30.144 27.1225 30.3711 26.8981ZM26.1675 24.9559C26.115 24.9612 26.0593 24.9668 26.0803 24.9246C26.0998 24.83 26.1967 24.8016 26.2913 24.7739C26.3318 24.762 26.3719 24.7503 26.4054 24.7335L26.4207 24.7256L26.4318 24.7197C26.4842 24.6919 26.5484 24.6578 26.5958 24.6776C26.6277 24.723 26.6673 24.7347 26.7057 24.7461C26.7344 24.7546 26.7624 24.7629 26.7862 24.7848C26.6857 24.8856 26.5685 24.8955 26.4496 24.9056C26.3706 24.9123 26.2909 24.9191 26.215 24.9526C26.2013 24.9526 26.1846 24.9542 26.1675 24.9559ZM22.0552 24.2985C22.0552 24.3265 22.083 24.3546 22.083 24.3546C22.7338 23.6206 23.3241 22.9941 24.1608 22.4751C24.1832 22.4657 24.1749 22.4775 24.1638 22.493C24.1473 22.5163 24.1247 22.548 24.1887 22.5312C24.4657 22.4681 24.5901 22.2308 24.7111 21.9999C24.7424 21.9402 24.7735 21.881 24.8069 21.8253C24.9339 21.6188 25.1141 21.4866 25.2958 21.3533C25.4268 21.2572 25.5585 21.1605 25.6715 21.0351C25.6715 21.0632 25.6715 21.0912 25.6436 21.1193C25.6715 21.1473 25.6994 21.1473 25.7273 21.1473C25.7763 21.1104 25.8298 21.095 25.8811 21.0804C25.9466 21.0617 26.0084 21.044 26.0527 20.9837C25.8388 20.8996 25.5646 20.8715 25.3508 20.9557C24.7837 21.2268 24.3003 21.6616 23.8401 22.1525C23.5612 22.4471 23.273 22.7229 22.9197 22.9146C22.678 23.4008 22.4084 23.8356 22.0552 24.2985ZM24.3244 22.5597C24.3099 22.5889 24.2953 22.6041 24.2814 22.6187C24.2687 22.6319 24.2566 22.6446 24.2455 22.6669C24.2176 22.7228 24.1898 22.7461 24.1387 22.7741C24.1108 22.7741 24.083 22.7741 24.083 22.7461C24.1108 22.6389 24.1898 22.5317 24.2966 22.5038C24.3244 22.5084 24.3244 22.5364 24.3244 22.5597ZM25.5131 26.7116C25.5363 26.6883 25.5641 26.6602 25.5781 26.6322C25.6013 26.5761 25.4573 26.5901 25.4341 26.6041C25.4131 26.6211 25.3996 26.6381 25.3834 26.6585L25.3784 26.6649C25.359 26.6872 25.3364 26.7078 25.3133 26.7288C25.2977 26.743 25.282 26.7573 25.2669 26.7724C25.2019 26.8379 25.1369 26.9033 25.0673 26.9641C25.0208 27.0062 25.1694 27.0249 25.2019 26.9968C25.2391 26.9688 25.2716 26.9361 25.3041 26.9033C25.3165 26.9033 25.3289 26.9013 25.3371 26.8999L25.3428 26.899L25.3459 26.8987C25.4229 26.8728 25.4802 26.8192 25.5359 26.7671L25.5502 26.7537C25.5688 26.735 25.5456 26.7163 25.5131 26.7116ZM25.0928 26.4076C25.0923 26.4077 25.0919 26.4078 25.0917 26.4081C25.0911 26.4087 25.0911 26.4099 25.0911 26.4122C25.0626 26.4317 25.0344 26.4517 25.0063 26.4715C24.9337 26.5229 24.8614 26.5741 24.7843 26.6179C24.7106 26.6594 24.635 26.6953 24.5587 26.7315C24.5147 26.7524 24.4705 26.7734 24.4264 26.7956C24.4264 26.7956 24.4264 26.7909 24.4217 26.7909C24.4124 26.7769 24.3938 26.7722 24.3752 26.7815C24.273 26.8376 24.1847 26.9124 24.1056 26.9919C24.0917 27.0013 24.0778 27.0153 24.0685 27.0293L24.0266 27.0714V27.0761C24.008 27.0948 23.9894 27.1135 23.9662 27.1415C23.9614 27.1464 23.9577 27.1513 23.9541 27.1559C23.9474 27.1647 23.9412 27.1728 23.929 27.1789C23.9104 27.1883 23.8639 27.1883 23.8686 27.1602V27.1556C23.8546 27.1649 23.836 27.1743 23.8221 27.1789C23.8151 27.1836 23.8082 27.1871 23.8012 27.1906C23.7942 27.1941 23.7872 27.1976 23.7803 27.2023C23.7756 27.1976 23.7663 27.1976 23.7617 27.1976C23.757 27.1976 23.7477 27.1976 23.7431 27.2023C23.7322 27.2117 23.7214 27.2205 23.7105 27.2293C23.6889 27.247 23.6672 27.2647 23.6455 27.2865C23.5897 27.3379 23.5386 27.394 23.4874 27.4548C23.4874 27.4548 23.4874 27.4595 23.4828 27.4595C23.4828 27.4618 23.4816 27.463 23.4805 27.4641C23.4793 27.4653 23.4781 27.4665 23.4781 27.4688L23.4688 27.4782C23.4671 27.4799 23.466 27.4817 23.465 27.4833C23.4635 27.4857 23.4624 27.4875 23.4595 27.4875L23.4549 27.4922C23.4502 27.5015 23.4456 27.5109 23.4363 27.5202C23.4316 27.5249 23.4224 27.5296 23.4131 27.5296C23.4084 27.5249 23.4038 27.5202 23.4038 27.5156C23.4014 27.5132 23.4003 27.5109 23.3991 27.5085C23.3979 27.5062 23.3968 27.5039 23.3945 27.5015C23.3898 27.4945 23.3863 27.4875 23.3828 27.4805C23.3794 27.4735 23.3759 27.4665 23.3712 27.4595V27.4548C23.3712 27.4524 23.3701 27.4501 23.3689 27.4478C23.3677 27.4454 23.3666 27.4431 23.3666 27.4408L23.4502 27.3426L23.4549 27.3379C23.4595 27.3332 23.4642 27.3274 23.4688 27.3216C23.4735 27.3157 23.4781 27.3098 23.4828 27.3052C23.4898 27.2958 23.4979 27.2865 23.506 27.2771C23.5141 27.2678 23.5223 27.2584 23.5293 27.2491C23.5316 27.2444 23.5339 27.2409 23.5362 27.2374C23.5386 27.2339 23.5409 27.2304 23.5432 27.2257C23.5711 27.1883 23.599 27.1509 23.6269 27.1088V27.1041C23.6315 27.0995 23.6362 27.0948 23.6362 27.0854C23.6501 27.0667 23.6641 27.048 23.6734 27.0293L23.7012 26.9732V26.9686L23.7059 26.9639C23.7059 26.9615 23.7071 26.9604 23.7082 26.9592C23.7094 26.958 23.7105 26.9569 23.7105 26.9545C23.7152 26.9428 23.7198 26.9323 23.7245 26.9218C23.7291 26.9113 23.7338 26.9008 23.7384 26.8891V26.8844L23.7431 26.8657C23.7454 26.861 23.7466 26.8563 23.7477 26.8517C23.7489 26.847 23.7501 26.8423 23.7524 26.8376V26.833C23.7547 26.826 23.7559 26.8189 23.757 26.8119C23.7582 26.8049 23.7594 26.7979 23.7617 26.7909C23.7617 26.7862 23.7617 26.7769 23.757 26.7722C23.7849 26.7208 23.8221 26.674 23.8639 26.6273C23.8616 26.6273 23.8593 26.6284 23.857 26.6296C23.8556 26.6303 23.8543 26.6309 23.853 26.6314C23.852 26.6317 23.851 26.6319 23.85 26.6319C23.8293 26.6449 23.8115 26.6623 23.7934 26.6799C23.7789 26.694 23.7642 26.7083 23.7477 26.7208C23.7198 26.7441 23.6641 26.7067 23.7012 26.6787C23.7245 26.66 23.7431 26.6413 23.7617 26.6226C23.7617 26.6226 23.7617 26.6179 23.7663 26.6179C23.7849 26.6011 23.8026 26.5821 23.8206 26.563C23.8476 26.5341 23.875 26.5048 23.9058 26.4823C23.9383 26.4589 23.9615 26.4402 23.9894 26.4169C23.9941 26.4122 23.9987 26.4075 24.0034 26.4075C24.022 26.3841 24.0406 26.3608 24.0638 26.3374C24.0638 26.3374 24.0685 26.3374 24.0685 26.3327C24.2281 26.1779 24.4524 26.1233 24.6813 26.0676C24.8257 26.0324 24.972 25.9968 25.105 25.9353C25.1802 25.904 25.264 25.9163 25.3468 25.9285C25.4125 25.9382 25.4776 25.9477 25.5373 25.9353C25.6163 25.9353 25.7 25.9353 25.779 25.9914C25.5952 26.0893 25.4198 26.2012 25.2463 26.3119C25.196 26.344 25.1458 26.376 25.0957 26.4075C25.0944 26.4075 25.0935 26.4075 25.0928 26.4076ZM25.6737 24.5021C25.6519 24.5046 25.6378 24.5062 25.6499 24.5184C25.7289 24.5979 25.8916 24.5698 26.0032 24.509C26.0822 24.4529 26.1658 24.4529 26.2728 24.4529C26.3006 24.4529 26.3006 24.4015 26.3006 24.3734C26.3797 24.4015 26.4354 24.4015 26.5145 24.4015C27.1606 24.2659 27.7834 24.1303 28.3784 23.8311C27.7764 23.3659 27.0342 23.1587 26.3072 22.9558C26.1866 22.9221 26.0664 22.8886 25.9474 22.854C25.9735 22.854 25.9997 22.8627 26.0261 22.8715C26.0792 22.8892 26.1331 22.9071 26.1891 22.854C26.1153 22.7951 26.0332 22.7839 25.9519 22.7727C25.8846 22.7635 25.8178 22.7544 25.7568 22.7184C25.7632 22.7184 25.7707 22.7198 25.779 22.7214C25.8068 22.7268 25.8422 22.7336 25.8637 22.6903C25.7225 22.6193 25.5813 22.5952 25.4388 22.5709C25.3655 22.5583 25.2918 22.5458 25.2176 22.5267C25.3524 22.4986 25.4361 22.3911 25.4361 22.2555C25.4361 22.2275 25.3803 22.2275 25.3524 22.2275C25.0317 22.3911 24.8132 22.6903 24.6784 23.041C24.7999 23.1125 24.9309 23.1042 25.0593 23.0961C25.1322 23.0915 25.2043 23.0869 25.2734 23.0971C25.2124 23.155 25.1244 23.1707 25.0397 23.1858C25.0081 23.1915 24.977 23.197 24.948 23.2046C24.8643 23.2233 24.7853 23.2841 24.8132 23.3402C24.8318 23.3636 24.8504 23.3729 24.8736 23.3776C24.8132 23.3963 24.7574 23.4244 24.7063 23.4758C24.7828 23.536 24.8617 23.5244 24.9396 23.5129C24.9705 23.5084 25.0013 23.5038 25.0317 23.5038C25.0317 23.5378 25.054 23.5493 25.0771 23.5613C25.0891 23.5675 25.1012 23.5738 25.1107 23.5833C24.9759 23.6347 24.869 23.747 24.8411 23.8264C24.8078 23.9074 24.7463 23.96 24.6853 24.0122C24.6442 24.0474 24.6033 24.0823 24.5715 24.1256V24.2098C24.4817 24.2894 24.3894 24.3605 24.2984 24.4306C24.1114 24.5746 23.9298 24.7145 23.7859 24.9158C23.8138 24.9158 23.8138 24.9438 23.8138 24.9719C23.7881 25.0107 23.7515 25.0376 23.7168 25.063C23.6763 25.0928 23.6383 25.1207 23.6233 25.1636C23.6233 25.1916 23.6233 25.2197 23.6511 25.2197C23.8217 25.1633 23.9693 25.0684 24.114 24.9753C24.2453 24.8909 24.3742 24.808 24.5157 24.7568C24.6314 24.729 24.7321 24.6765 24.8303 24.6254C24.9137 24.582 24.9953 24.5395 25.0828 24.5137C25.1502 24.4997 25.2246 24.4798 25.2989 24.4599C25.3733 24.4401 25.4477 24.4202 25.5151 24.4062C25.5151 24.4342 25.5151 24.4623 25.543 24.4623H25.7568C25.7436 24.4941 25.7021 24.4988 25.6737 24.5021Z" fill="#000091"/>
<path d="M53.6 14.2H38.1159C38.1159 14.2 38.144 14.2047 38.261 14.2655C38.3874 14.3311 38.5512 14.42 38.6495 14.4715C38.8508 14.5745 39.0427 14.7056 39.1691 14.9069C39.2253 14.9865 39.3049 15.1503 39.2534 15.258C39.1972 15.3938 39.1691 15.6138 39.0334 15.6653C38.8695 15.7495 38.6542 15.7495 38.4623 15.7215C38.3547 15.7215 38.247 15.6934 38.1347 15.6653C38.5419 15.8291 38.9257 16.0211 39.1972 16.4003C39.2253 16.4564 39.3329 16.4798 39.4406 16.4798C39.4687 16.4798 39.4687 16.536 39.4687 16.5594C39.4125 16.6156 39.361 16.6437 39.3891 16.7233H39.4687C39.6044 16.6671 39.5763 16.3956 39.7683 16.4798C39.904 16.5594 39.9602 16.7514 39.8759 16.8871C39.7683 16.9948 39.6606 17.0791 39.5483 17.1586C39.5202 17.2148 39.5202 17.2944 39.5483 17.3506C39.6278 17.4583 39.6559 17.5659 39.684 17.6783C39.7683 17.8702 39.7917 18.0856 39.8759 18.2775C39.9836 18.6848 40.0912 19.0921 40.0678 19.504C40.0678 19.7194 39.9602 19.9113 40.0397 20.1313C40.0959 20.3467 40.2317 20.5105 40.3393 20.7025C40.447 20.8663 40.5546 20.974 40.6389 21.1378C40.8027 21.4094 41.1023 21.6809 40.9665 22.0086C40.887 22.2005 40.5874 22.1724 40.3955 22.2801C40.2317 22.4159 40.3674 22.6359 40.4516 22.7717C40.5874 23.0151 40.2878 23.1789 40.0959 23.2632C40.1521 23.3475 40.2597 23.3194 40.2878 23.3709C40.3159 23.5066 40.4516 23.5862 40.3674 23.7267C40.2597 23.8905 39.9321 23.9701 40.0959 24.2182C40.2036 24.4101 40.1334 24.6208 40.0678 24.8174C39.9882 25.0609 39.7683 25.1685 39.5763 25.2247C39.4125 25.2809 39.2206 25.2809 39.0615 25.2528C39.0053 25.2247 38.9538 25.1966 38.8976 25.1966C38.4342 25.1404 37.9708 25.0094 37.5121 25.0094C37.3764 25.0375 37.2406 25.0609 37.133 25.117C37.0113 25.206 36.8989 25.3043 36.8053 25.4073C36.8053 25.4073 36.8053 25.4073 36.8006 25.412C36.7819 25.4354 36.7585 25.4541 36.7398 25.4775C36.7304 25.4915 36.7164 25.5056 36.707 25.5196C36.6977 25.529 36.693 25.5384 36.6836 25.5477C36.604 25.646 36.5338 25.7537 36.4683 25.8614C36.4636 25.8707 36.4589 25.8754 36.4542 25.8801C36.4496 25.8941 36.4402 25.9035 36.4308 25.9176C36.3419 26.0814 36.2764 26.2499 36.2249 26.4185C36.0377 27.0411 36.1219 27.5748 36.253 27.7059C36.2904 27.7433 37.1517 28.0101 37.7508 28.277C38.0317 28.4034 38.2283 28.497 38.3921 28.6H53.5953V14.2H53.6Z" fill="#E1000F"/>
<path d="M39.0357 19.4497C39.1431 19.4778 39.3065 19.4778 39.3065 19.5339C39.2505 19.7489 38.9284 19.805 38.765 20.0248H38.6809C38.6016 20.0809 38.6249 20.2165 38.5455 20.2165C38.4662 20.1884 38.3821 20.2165 38.3028 20.2445C38.4101 20.3521 38.5455 20.4362 38.7089 20.4082C38.7369 20.4082 38.7883 20.4643 38.7883 20.5157C38.7883 20.5157 38.8163 20.5157 38.8443 20.4876C38.8723 20.4876 38.9003 20.4876 38.9003 20.5157V20.6232C38.821 20.7308 38.6809 20.6793 38.5735 20.7027C38.793 20.7588 39.0077 20.7588 39.1991 20.7027C39.3625 20.6466 39.1991 20.3754 39.3065 20.2399C39.2505 20.2399 39.3065 20.1557 39.2505 20.1557C39.3065 20.0996 39.3579 20.0201 39.4139 19.9921C39.4699 19.9921 39.5493 19.964 39.5773 19.9079C39.5773 19.8518 39.4699 19.8284 39.4933 19.7723C39.6567 19.6648 39.792 19.5012 39.736 19.3375C39.708 19.2534 39.4933 19.2534 39.3579 19.2019C39.2225 19.1505 39.0591 19.2019 38.8957 19.23C38.7603 19.23 38.6249 19.3141 38.4895 19.3375C38.2981 19.3936 38.1347 19.5012 37.976 19.6087C38.1674 19.5292 38.3541 19.5012 38.5735 19.4451C38.7369 19.4497 38.8723 19.4123 39.0357 19.4497Z" fill="#808080"/>
<path d="M15.8832 47.6V37.52H18.9648C21.1824 37.52 22.5504 38.6576 22.5504 40.5296C22.5504 41.7536 21.96 42.6608 20.9232 43.136L24.0768 47.6H21.672L18.9792 43.5248H17.928V47.6H15.8832ZM19.08 39.2192H17.928V41.8256H19.08C19.944 41.8256 20.448 41.3216 20.448 40.5008C20.448 39.7376 19.944 39.2192 19.08 39.2192ZM29.4328 36.656H27.5752L29.2024 34.712H31.3048L29.4328 36.656ZM25.588 47.6V37.52H31.4632V39.2192H27.6328V41.6096H30.8872V43.3088H27.6328V45.9008H31.4632V47.6H25.588ZM34.0553 47.6V37.52H37.3817C39.5993 37.52 40.9529 38.6576 40.9529 40.5296C40.9529 42.3872 39.5993 43.5248 37.3817 43.5248H36.1001V47.6H34.0553ZM37.4681 39.2192H36.1001V41.8256H37.4681C38.3321 41.8256 38.8505 41.3216 38.8505 40.5008C38.8505 39.7376 38.3321 39.2192 37.4681 39.2192ZM48.8046 43.8272V37.52H50.8494V43.6544C50.8494 46.304 49.2942 47.888 46.7598 47.888C44.2398 47.888 42.6846 46.304 42.6846 43.6544V37.52H44.7294V43.8272C44.7294 45.1808 45.4926 45.9728 46.7742 45.9728C48.027 45.9728 48.8046 45.1808 48.8046 43.8272ZM53.6056 47.6V37.52H56.572C58.6744 37.52 59.956 38.5568 59.956 40.256C59.956 41.0768 59.5816 41.7824 58.876 42.2432C59.9416 42.7184 60.532 43.5824 60.532 44.6336C60.532 46.4768 59.1064 47.6 56.788 47.6H53.6056ZM56.6152 39.2192H55.6504V41.4944H56.6152C57.3928 41.4944 57.8536 41.0768 57.8536 40.3424C57.8536 39.6368 57.3928 39.2192 56.6152 39.2192ZM56.9032 43.1936H55.6504V45.9008H56.9032C57.8536 45.9008 58.4296 45.3968 58.4296 44.5472C58.4296 43.6832 57.8536 43.1936 56.9032 43.1936ZM62.8463 47.6V37.52H64.8911V45.7424H68.7215V47.6H62.8463ZM70.7371 47.6V37.52H72.7819V47.6H70.7371ZM84.2681 47.3408C85.0457 48.0464 85.7369 48.3056 86.3849 48.3056C86.6009 48.3056 86.8889 48.2768 87.1049 48.1904V49.9184C86.7737 50.048 86.4857 50.1056 86.0393 50.1056C84.9161 50.1056 83.8793 49.6448 82.8857 48.7808L81.6905 47.7152C81.2585 47.8304 80.7977 47.888 80.3081 47.888C77.1257 47.888 74.9513 45.44 74.9513 42.56C74.9513 39.68 77.1257 37.232 80.3081 37.232C83.4761 37.232 85.6505 39.68 85.6505 42.56C85.6505 44.2448 84.9017 45.7856 83.6633 46.7648L84.2681 47.3408ZM80.3081 45.9728C82.1945 45.9728 83.5481 44.4896 83.5481 42.56C83.5481 40.6304 82.1945 39.1472 80.3081 39.1472C78.4073 39.1472 77.0537 40.6304 77.0537 42.56C77.0537 44.4896 78.4073 45.9728 80.3081 45.9728ZM93.7709 43.8272V37.52H95.8157V43.6544C95.8157 46.304 94.2605 47.888 91.7261 47.888C89.2061 47.888 87.6509 46.304 87.6509 43.6544V37.52H89.6957V43.8272C89.6957 45.1808 90.4589 45.9728 91.7405 45.9728C92.9933 45.9728 93.7709 45.1808 93.7709 43.8272ZM98.5718 47.6V37.52H104.447V39.2192H100.617V41.6096H103.871V43.3088H100.617V45.9008H104.447V47.6H98.5718ZM15.8832 61.6V51.52H21.7584V53.2192H17.928V55.6096H21.1824V57.3088H17.928V61.6H15.8832ZM23.7739 61.6V51.52H26.8555C29.0731 51.52 30.4411 52.6576 30.4411 54.5296C30.4411 55.7536 29.8507 56.6608 28.8139 57.136L31.9675 61.6H29.5627L26.8699 57.5248H25.8187V61.6H23.7739ZM26.9707 53.2192H25.8187V55.8256H26.9707C27.8347 55.8256 28.3387 55.3216 28.3387 54.5008C28.3387 53.7376 27.8347 53.2192 26.9707 53.2192ZM32.6475 61.6L36.4635 51.52H39.1419L42.9579 61.6H40.7835L39.8187 58.9792H35.7867L34.8219 61.6H32.6475ZM36.4203 57.2368H39.1851L37.8027 53.4496L36.4203 57.2368ZM44.7304 61.6V51.52H47.3512L51.8584 58.8064V51.52H53.9032V61.6H51.2824L46.7752 54.3136V61.6H44.7304ZM61.4312 59.9728C62.5832 59.9728 63.4904 59.4112 64.0664 58.5904L65.6792 59.8288C64.9016 60.8944 63.692 61.6432 62.2232 61.8304L60.9704 63.9184H59.156L60.4232 61.8016C57.8024 61.3408 56.0744 59.1232 56.0744 56.56C56.0744 53.68 58.2488 51.232 61.4312 51.232C63.26 51.232 64.7576 52.0528 65.6792 53.2768L64.0664 54.5296C63.4904 53.7088 62.5832 53.1472 61.4312 53.1472C59.5304 53.1472 58.1768 54.6304 58.1768 56.56C58.1768 58.4896 59.5304 59.9728 61.4312 59.9728ZM66.3322 61.6L70.1482 51.52H72.8266L76.6426 61.6H74.4682L73.5034 58.9792H69.4714L68.5066 61.6H66.3322ZM70.105 57.2368H72.8698L71.4874 53.4496L70.105 57.2368ZM78.4152 61.6V51.52H80.46V61.6H78.4152ZM82.5862 60.2032L84.0694 58.8352C84.6742 59.6128 85.4806 60.0736 86.3014 60.0736C87.1078 60.0736 87.5974 59.6416 87.5974 58.9216C87.5974 57.064 83.0182 57.568 83.0182 54.1552C83.0182 52.5568 84.343 51.232 86.2726 51.232C87.7846 51.232 88.9366 51.9088 89.8006 52.9312L88.303 54.2848C87.7126 53.5216 87.0502 53.0176 86.287 53.0176C85.567 53.0176 85.0918 53.4784 85.0918 54.0832C85.0918 55.912 89.671 55.3936 89.671 58.8496C89.6422 60.7504 88.1734 61.888 86.3158 61.888C84.6166 61.888 83.479 61.2688 82.5862 60.2032ZM92.0311 61.6V51.52H97.9063V53.2192H94.0759V55.6096H97.3303V57.3088H94.0759V59.9008H97.9063V61.6H92.0311Z" fill="#161616"/>
<path fill-rule="evenodd" clip-rule="evenodd" d="M51.816 86.9368L50.4766 88.1607H50.131L50.9231 86.764H51.816V86.9368ZM50.8511 91.6737H50.563C50.203 92.1056 49.7997 92.4512 49.4109 92.4512C49.0076 92.4512 48.806 92.2064 48.806 91.6737C48.806 91.4577 48.8348 91.2273 48.878 91.0257L51.2255 90.2481C51.6864 89.1538 51.1391 88.6786 50.491 88.6786C49.3821 88.6786 48.1147 90.6225 48.1147 92.1776C48.1147 92.912 48.4603 93.3152 49.0076 93.3152C49.6413 93.3008 50.3038 92.6816 50.8511 91.6737ZM50.0455 89.3126C50.3623 89.3126 50.6359 89.5574 50.4919 90.1189L49.0373 90.5077C49.2677 89.8166 49.6998 89.3126 50.0455 89.3126ZM45.4663 89.341H46.244L45.0054 92.7392C44.8902 93.0272 45.0486 93.3152 45.3511 93.3152C46.2296 93.3152 47.2809 92.5664 47.6842 91.5009H47.4682C47.1513 91.9473 46.46 92.4368 45.9415 92.5232L47.0793 89.341H48.2459L48.3899 88.8515H47.2521L47.6842 87.6275H47.2377L46.4312 88.8515L45.4663 88.981V89.341ZM44.3853 88.6939C44.5437 88.6939 44.7598 88.8667 44.659 89.1834L43.262 92.5672C43.622 92.5096 43.9965 92.1641 44.2125 91.8473H44.4429C44.1117 92.6968 43.3628 93.316 42.7147 93.316C42.5563 93.316 42.3258 93.1432 42.441 92.8264L43.7372 89.4426C43.3772 89.5002 43.0027 89.8458 42.7867 90.1626H42.5707C42.9019 89.2986 43.7084 88.6939 44.3853 88.6939ZM44.7895 87.8295C45.0776 87.8295 45.3224 87.5992 45.3224 87.2968C45.3224 87.0088 45.0776 86.764 44.7895 86.764C44.4871 86.764 44.2567 87.0088 44.2567 87.2968C44.2567 87.5848 44.5015 87.8295 44.7895 87.8295ZM38.4956 90.6378C38.8125 89.9466 38.6973 89.6298 38.4956 89.6298C38.3228 89.6298 38.1212 89.817 37.9195 90.1626H37.7035C38.0348 89.4282 38.4668 88.6939 38.9421 88.6939C39.3453 88.6939 39.4894 89.097 39.4894 89.5434V90.177C39.5542 90.1016 39.6173 90.0276 39.6789 89.9552L39.6801 89.9539L39.681 89.9528C40.2894 89.2389 40.754 88.6939 41.2896 88.6939C41.7073 88.6939 41.9233 88.9531 41.9233 89.3418C41.9233 89.5722 41.8513 89.8602 41.6929 90.1626L40.4975 92.5672C40.8576 92.5096 41.232 92.1641 41.448 91.8473H41.6641C41.3328 92.7112 40.5263 93.316 39.8494 93.316C39.547 93.316 39.3741 92.9992 39.5038 92.74L40.8864 90.0762C41.0448 89.7738 41.0736 89.5722 40.8288 89.5722C40.4975 89.5722 39.7198 90.1194 39.3021 90.6234L38.3948 93.0136C38.294 93.2584 38.1932 93.316 37.9627 93.316C37.5883 93.316 37.4011 93.0712 37.5739 92.6824L38.4956 90.6378ZM37.5584 89.7154C37.7168 89.1682 37.6304 88.6786 37.2128 88.6786C36.6919 88.6786 36.5288 89.0226 36.024 90.087L35.9886 90.1617V89.5282C35.9886 89.0818 35.8446 88.6786 35.4413 88.6786C34.966 88.6786 34.534 89.413 34.2027 90.1473H34.4188C34.6492 89.8162 34.8652 89.6146 35.0381 89.6146C35.2397 89.6146 35.3549 89.9314 35.0381 90.6225L34.1163 92.6672C33.9435 93.056 34.1307 93.3008 34.5052 93.3008C34.7356 93.3008 34.8364 93.2432 34.9372 92.9984L35.8446 90.6081C36.1038 90.2913 36.3342 90.0178 36.6223 89.7154H37.5584ZM33.0077 90.1189C33.1517 89.5574 32.8781 89.3126 32.5612 89.3126C32.2156 89.3126 31.7835 89.8166 31.5531 90.5077L33.0077 90.1189ZM33.3669 91.6737H33.0788C32.7188 92.1056 32.3155 92.4512 31.9266 92.4512C31.5234 92.4512 31.3218 92.2064 31.3218 91.6737C31.3218 91.4577 31.3506 91.2273 31.3938 91.0257L33.7413 90.2481C34.2022 89.1538 33.6549 88.6786 33.0068 88.6786C31.8978 88.6786 30.6305 90.6225 30.6305 92.1776C30.6305 92.912 30.9761 93.3152 31.5234 93.3152C32.1571 93.3008 32.8196 92.6816 33.3669 91.6737ZM28.7598 89.341H27.982V88.981L28.947 88.8515L29.7535 87.6275H30.2L29.7679 88.8515H30.9057L30.7616 89.341H29.5951L28.4573 92.5232C28.9758 92.4368 29.6671 91.9473 29.9839 91.5009H30.2C29.7967 92.5664 28.7453 93.3152 27.8668 93.3152C27.5644 93.3152 27.406 93.0272 27.5212 92.7392L28.7598 89.341ZM23.8638 91.9764C23.8638 90.9253 25.0303 89.5141 25.6784 89.5141C25.8225 89.5141 25.9665 89.5285 26.0817 89.5717L25.4048 91.386C25.0159 91.8612 24.411 92.4372 24.123 92.4372C23.9646 92.4372 23.8638 92.2932 23.8638 91.9764ZM27.0758 88.463L27.4358 88.4918L26.1829 91.3717C25.8804 92.0628 26.01 92.3796 26.1829 92.3796C26.3557 92.3796 26.5717 92.178 26.8022 91.8468H27.0182C26.6869 92.5812 26.2549 93.3155 25.7796 93.3155C25.3763 93.3155 25.1315 92.8836 25.2035 92.106L25.2323 91.8324L25.1539 91.942C24.638 92.6631 24.1712 93.3155 23.6913 93.3155C23.2736 93.3155 23.0576 93.0564 23.0576 92.6676C23.0576 90.9973 24.8867 88.8662 26.6005 88.8662H26.6725L27.0758 88.463ZM23.7768 89.7154C23.9352 89.1682 23.8488 88.6786 23.4312 88.6786C22.9103 88.6786 22.7472 89.0226 22.2424 90.087L22.207 90.1617V89.5282C22.207 89.0818 22.063 88.6786 21.6597 88.6786C21.1844 88.6786 20.7524 89.413 20.4211 90.1473H20.6372C20.8676 89.8162 21.0836 89.6146 21.242 89.6146C21.4437 89.6146 21.5589 89.9314 21.242 90.6225L20.3203 92.6816C20.1475 93.0704 20.3347 93.3152 20.7092 93.3152C20.9396 93.3152 21.0404 93.2576 21.1412 93.0128L22.0486 90.6225C22.3078 90.3057 22.5382 90.0322 22.8263 89.7298H23.7768V89.7154ZM17.8421 92.8823L17.7557 93.1415H14.4L14.4864 92.8679C15.5234 92.6807 15.6962 92.5943 16.1282 91.428L17.0644 88.9225C17.482 87.7562 17.3956 87.6698 16.4883 87.4826L16.5747 87.2234H20.9385L20.6793 88.6202H20.3625C20.3625 87.785 20.276 87.569 19.4839 87.569H19.2823C18.5046 87.569 18.4038 87.6842 18.1877 88.289L17.5685 89.9737H18.4758C19.0807 89.9737 19.3111 89.5993 19.5847 89.1097H19.9016L19.1527 91.1544H18.8358C18.9078 90.5353 18.9078 90.2905 18.3462 90.2905H17.4388L17.0212 91.4424C16.5697 92.6414 16.6987 92.6658 17.7738 92.8694C17.7961 92.8736 17.8189 92.8779 17.8421 92.8823Z" fill="black"/>
<path fill-rule="evenodd" clip-rule="evenodd" d="M20.6937 75.9209L19.3543 76.8862V76.9006H19.0086L19.8008 75.748H20.6937V75.9209ZM30.0566 82.6777L32.2026 76.9725L32.1306 76.8861L30.6471 77.0589V77.2318L30.9352 77.4479C31.1811 77.6393 31.116 77.8176 30.912 78.3765L30.8776 78.4708L29.2357 82.8506C29.1061 83.1099 29.2789 83.4269 29.5814 83.4269C30.2583 83.4269 30.9784 82.8074 31.3097 81.9574H31.0936C30.8632 82.2743 30.4023 82.6201 30.0566 82.6777ZM39.8926 78.2835L41.232 77.0589V76.8861H40.339L39.5469 78.2835H39.8926ZM39.978 81.7845H40.2661C39.7332 82.8074 39.0707 83.4269 38.437 83.4269C37.8897 83.4269 37.544 83.0235 37.544 82.2887C37.544 80.7327 38.8114 78.7878 39.9204 78.7878C40.5541 78.7878 41.1158 79.2632 40.655 80.3581L38.2929 81.1361C38.2497 81.3378 38.2209 81.5683 38.2209 81.7845C38.2209 82.3175 38.4226 82.5624 38.8258 82.5624C39.2147 82.5624 39.618 82.2167 39.978 81.7845ZM39.9053 80.2285C40.0494 79.6811 39.7757 79.4361 39.4589 79.4361C39.1276 79.4361 38.6955 79.9404 38.4507 80.6175L39.9053 80.2285ZM35.671 79.4646H34.8932V79.1044L35.8582 78.9748L36.6647 77.7502H37.1112L36.6791 78.9748H37.8169L37.6729 79.4646H36.5063L35.3685 82.6486C35.887 82.5621 36.5783 82.0723 36.8952 81.6257H37.1112C36.7079 82.6918 35.6566 83.441 34.778 83.441C34.4756 83.441 34.3171 83.1528 34.4323 82.8647L35.671 79.4646ZM34.0866 79.2917C34.173 78.9747 33.9714 78.8018 33.7985 78.8018C33.1216 78.8018 32.3151 79.4214 31.9838 80.2714H32.1999C32.4159 79.9544 32.7904 79.6086 33.1504 79.551L31.8542 82.9367C31.739 83.2536 31.9694 83.4265 32.1279 83.4265C32.776 83.4265 33.5249 82.807 33.8562 81.957H33.6401C33.4241 82.274 33.0496 82.6197 32.6896 82.6774L34.0866 79.2917ZM34.7502 77.4191C34.7502 77.7073 34.5053 77.9522 34.2173 77.9522C33.9292 77.9522 33.6844 77.7073 33.6844 77.4191C33.6844 77.131 33.9148 76.8861 34.2173 76.8861C34.5053 76.8861 34.7502 77.131 34.7502 77.4191ZM27.4784 79.6378C26.8303 79.6378 25.6637 81.0497 25.6637 82.1014C25.6637 82.4184 25.7645 82.5624 25.9373 82.5624C26.211 82.5624 26.8159 81.9862 27.2048 81.5107L27.8817 79.6954C27.7521 79.6522 27.6224 79.6378 27.4784 79.6378ZM29.2359 78.6149L28.8758 78.5861L28.4725 78.9895H28.4005C26.6866 78.9895 24.8575 81.1218 24.8575 82.793C24.8575 83.182 25.0735 83.4413 25.4912 83.4413C25.9711 83.4413 26.4379 82.7885 26.9539 82.067L27.0323 81.9574L27.0035 82.2311C26.9315 83.0091 27.1763 83.4413 27.5796 83.4413C28.0549 83.4413 28.4869 82.7065 28.8182 81.9718H28.6022C28.3717 82.3031 28.1557 82.5048 27.9829 82.5048C27.81 82.5048 27.6804 82.1879 27.9829 81.4963L29.2359 78.6149ZM21.9762 83.283C21.3569 83.5279 20.9248 83.816 20.9248 84.2626C20.9248 84.6804 21.3137 84.8533 22.1202 84.8533C23.2004 84.8533 23.7909 84.5364 23.7909 84.1186C23.7909 83.9313 23.5461 83.8448 22.898 83.6287C22.4803 83.4991 22.1778 83.3838 21.9762 83.283ZM22.6954 81.5108C22.4073 81.5108 22.3065 81.2659 22.3065 81.0066C22.3065 80.171 22.7098 79.1336 23.3579 79.1336C23.6459 79.1336 23.7468 79.3786 23.7468 79.6379C23.7324 80.4879 23.3291 81.5108 22.6954 81.5108ZM23.2441 82.865C24.0363 83.1099 24.5259 83.2972 24.5259 83.8447C24.5259 84.5506 23.2297 85.3862 21.6598 85.3718C20.7525 85.3718 19.9747 85.1269 19.9747 84.5362C19.9747 83.9743 20.4932 83.5133 21.7607 83.1387C21.5878 83.0235 21.5158 82.8794 21.5158 82.6777C21.5158 82.3319 21.8327 82.0582 22.38 81.7989C21.8471 81.7268 21.5014 81.3234 21.5014 80.7327C21.5014 79.8251 22.2503 78.7878 23.4314 78.7878C23.6762 78.7878 23.8922 78.8454 24.0651 78.9607H25.3613L25.2173 79.4505H24.4539C24.4971 79.5802 24.5259 79.7242 24.5259 79.8827C24.5259 80.7615 23.8202 81.77 22.6968 81.8277C22.4088 81.9862 22.2647 82.2023 22.2647 82.3751C22.2647 82.5786 22.5003 82.6474 23.021 82.7994C23.0903 82.8196 23.1646 82.8413 23.2441 82.865ZM18.6775 80.4015C19.2392 80.4015 19.2536 80.6464 19.1672 81.2659H19.4841L20.233 79.2201H19.9162C19.6425 79.7099 19.4121 80.0845 18.8072 80.0845H17.5685L18.1735 78.3989C18.3895 77.7938 18.4903 77.6785 19.268 77.6785H19.8153C20.6075 77.6785 20.6939 77.8946 20.6939 78.7302H21.0108L21.27 77.3328H16.5748L16.4884 77.5921C17.3957 77.7794 17.4821 77.8658 17.0645 79.0328L16.1283 81.554C15.6962 82.721 15.5234 82.8075 14.472 82.9948L14.4 83.2685H19.6137L20.5499 81.7846H20.1898C19.5849 82.3752 18.98 82.9227 17.799 82.9227C16.5 82.9227 16.5231 82.8591 16.9129 81.7881C16.938 81.7191 16.9646 81.646 16.9924 81.5684L17.4245 80.4159H18.6775V80.4015Z" fill="black"/>
<path fill-rule="evenodd" clip-rule="evenodd" d="M22.9796 68.0651C23.2675 68.0651 23.5123 67.8204 23.5123 67.5326C23.5123 67.2447 23.2675 67 22.9796 67C22.6772 67 22.4469 67.2447 22.4469 67.5326C22.4469 67.8348 22.6772 68.0651 22.9796 68.0651ZM27.2427 69.8783C27.2427 69.1875 27.0699 68.9284 26.5804 68.9284C25.9757 68.9284 25.4142 69.5761 24.8527 70.3533L26.0621 67.1148L25.9901 67.014L24.5072 67.1867V67.3595L24.7952 67.5754C25.0459 67.7703 24.9732 67.9653 24.7596 68.5381L24.7376 68.5973L23.4274 72.023C23.3122 72.3109 23.1827 72.6563 23.1827 72.7427C23.1827 73.1457 23.7298 73.5343 24.2337 73.5343C25.3566 73.5487 27.2427 71.476 27.2427 69.8783ZM39.7251 68.4102L41.064 67.1867V67.014H40.1714L39.3795 68.4102H39.7251ZM39.8118 71.9079H40.0997C39.5526 72.9298 38.8903 73.5487 38.2569 73.5344C37.7098 73.5344 37.3642 73.1457 37.3642 72.4116C37.3642 70.8571 38.6312 68.914 39.7398 68.914C40.3733 68.914 40.9347 69.389 40.474 70.4829L38.1273 71.2602C38.0841 71.4617 38.0553 71.692 38.0553 71.9079C38.0553 72.4404 38.2569 72.6851 38.66 72.6851C39.0487 72.6851 39.4518 72.3397 39.8118 71.9079ZM39.7384 70.3534C39.8824 69.8064 39.6088 69.5618 39.2921 69.5618C38.9465 69.5618 38.5146 70.0655 38.2843 70.742L39.7384 70.3534ZM35.4896 69.5914H34.7122V69.2315L35.6768 69.102L36.483 67.8785H36.9293L36.4974 69.102H37.6348L37.4908 69.5914H36.3246L35.1873 72.7724C35.7056 72.686 36.3966 72.1966 36.7134 71.7504H36.9293C36.5262 72.8155 35.4752 73.564 34.597 73.564C34.2946 73.564 34.1363 73.2761 34.2514 72.9883L35.4896 69.5914ZM34.3118 69.9656C34.4701 69.4186 34.3837 68.9292 33.9662 68.9292C33.4455 68.9292 33.2825 69.273 32.7779 70.3371L32.7425 70.4118V69.7784C32.7425 69.3322 32.5985 68.9292 32.1954 68.9292C31.7203 68.9292 31.2883 69.6633 30.9572 70.3974H31.1732C31.4035 70.0663 31.6195 69.8648 31.7779 69.8648C31.9794 69.8648 32.0946 70.1815 31.7779 70.8724L30.8564 72.9163C30.6837 73.3049 30.8708 73.5496 31.2452 73.5496C31.4755 73.5496 31.5763 73.492 31.6771 73.2473L32.5841 70.858C32.8432 70.5413 33.0736 70.2678 33.3615 69.9656H34.3118ZM29.7482 70.3534C29.8921 69.8064 29.6186 69.5618 29.3019 69.5618C28.9563 69.5618 28.5388 70.0655 28.2941 70.742L29.7482 70.3534ZM30.1072 71.9079H29.8193C29.4593 72.3397 29.0562 72.6851 28.6675 72.6851C28.2644 72.6851 28.0628 72.4404 28.0628 71.9079C28.0628 71.692 28.0916 71.4617 28.1348 71.2602L30.4815 70.4829C30.9423 69.389 30.3952 68.914 29.7473 68.914C28.6387 68.914 27.3717 70.8571 27.3717 72.4116C27.3717 73.1457 27.7173 73.5344 28.2644 73.5344C28.8979 73.5487 29.5601 72.9298 30.1072 71.9079ZM24.0615 72.4553C24.0615 72.6425 24.3926 72.8584 24.623 72.8584C25.5588 72.8584 26.437 71.1743 26.4226 70.2387C26.4226 69.9221 26.2642 69.7925 26.0483 69.7925C25.7027 69.7925 25.0693 70.3107 24.6661 70.8001L24.2918 71.8076C24.1622 72.1387 24.0615 72.3978 24.0615 72.4553ZM22.55 68.9292C22.7228 68.9292 22.9243 69.1019 22.838 69.4186L21.4558 72.8011C21.8158 72.7435 22.1901 72.3981 22.406 72.0814H22.622C22.2909 72.9307 21.5422 73.5496 20.8943 73.5496C20.7216 73.5496 20.4912 73.3769 20.6064 73.0602L21.9021 69.6777C21.5422 69.7353 21.1679 70.0807 20.9519 70.3974H20.736C21.0671 69.5482 21.8733 68.9292 22.55 68.9292ZM16.574 67.4322H19.6694L19.583 67.7057C18.532 67.8928 18.3592 67.9792 17.9273 69.1451L17.0059 71.6784C16.5596 72.8874 16.6748 73.0314 17.4666 73.0314C18.4449 73.0314 19.0864 72.3205 19.6466 71.6997C19.6882 71.6536 19.7293 71.608 19.7702 71.5632H20.1301L19.1079 73.3768H14.4L14.4864 73.1177C15.523 72.9306 15.6957 72.8442 16.1277 71.6784L17.0635 69.1307C17.481 67.9648 17.3946 67.8784 16.4876 67.6913L16.574 67.4322Z" fill="black"/>
</svg>
