<svg width="23" height="13" viewBox="0 0 23 13" fill="none" xmlns="http://www.w3.org/2000/svg">
  <path id="Ellipse 3"
    d="M13.8899 5.85522C13.9656 5.93868 13.9663 6.06143 13.8909 6.14514C12.9161 7.22664 9.38637 10.8192 6.84209 10.8192C4.16788 10.8192 2 8.66151 2 5.99991C2 3.33831 4.16788 1.18066 6.84209 1.18066C9.39771 1.18066 12.8436 4.70171 13.8899 5.85522Z"
    stroke="#000091" stroke-width="2.24242" />
  <path id="Ellipse 4"
    d="M8.82003 6.14454C8.74431 6.06107 8.74362 5.93833 8.81906 5.85462C9.79381 4.77312 13.3236 1.1806 15.8679 1.1806C18.5421 1.1806 20.71 3.33825 20.71 5.99984C20.71 8.66144 18.5421 10.8191 15.8679 10.8191C13.3123 10.8191 9.86639 7.29805 8.82003 6.14454Z"
    stroke="#E1000F" stroke-width="2.24242" />
</svg>
