<svg width="32" height="31" viewBox="0 0 32 31" fill="none" xmlns="http://www.w3.org/2000/svg">
<path d="M20.0029 15.114C20.087 15.2073 20.0886 15.3457 20.0048 15.4393C18.6093 16.999 13.1983 22.5533 9.311 22.5533C5.27325 22.5533 2 19.2955 2 15.2768C2 11.2581 5.27325 8.00024 9.311 8.00024C13.2118 8.00024 18.4863 13.4333 20.0029 15.114Z" stroke="#000091" stroke-width="2.5"/>
<path d="M12.2471 15.4392C12.163 15.3459 12.1614 15.2075 12.2452 15.1139C13.6407 13.5542 19.0517 7.99995 22.939 7.99995C26.9768 7.99995 30.25 11.2578 30.25 15.2765C30.25 19.2952 26.9768 22.553 22.939 22.553C19.0382 22.553 13.7637 17.1199 12.2471 15.4392Z" stroke="#E1000F" stroke-width="2.5"/>
</svg>
