<svg xmlns="http://www.w3.org/2000/svg" width="64" height="64" viewBox="0 0 64 64" fill="none">
  <path fill-rule="evenodd" clip-rule="evenodd"
    d="M47.2 60.8C46.7589 60.8 46.4 60.4411 46.4 60C46.4 59.5589 46.7589 59.2 47.2 59.2C47.6411 59.2 48 59.5589 48 60C48 60.4411 47.6411 60.8 47.2 60.8Z"
    fill="white" />
  <path fill-rule="evenodd" clip-rule="evenodd"
    d="M53.6 9.6C53.1589 9.6 52.8 9.24112 52.8 8.8C52.8 8.35884 53.1589 8 53.6 8C54.0412 8 54.4 8.35884 54.4 8.8C54.4 9.24112 54.0412 9.6 53.6 9.6Z"
    fill="white" />
  <path fill-rule="evenodd" clip-rule="evenodd"
    d="M7.20002 12.8C6.7589 12.8 6.40002 12.4411 6.40002 12C6.40002 11.5589 6.7589 11.2 7.20002 11.2C7.64114 11.2 8.00002 11.5589 8.00002 12C8.00002 12.4411 7.64114 12.8 7.20002 12.8Z"
    fill="white" />
  <path
    d="M29.6 18.4C29.6 17.9581 29.2419 17.6 28.8 17.6H19.2L19.1067 17.6054C18.7089 17.6516 18.4 17.9897 18.4 18.4C18.4 18.8418 18.7582 19.2 19.2 19.2H28.8L28.8933 19.1946C29.2912 19.1484 29.6 18.8102 29.6 18.4Z"
    fill="#7AB1E8" />
  <path
    d="M27.2 20.8C27.6419 20.8 28 21.1581 28 21.6C28 22.0102 27.6912 22.3484 27.2933 22.3946L27.2 22.4H19.2C18.7582 22.4 18.4 22.0418 18.4 21.6C18.4 21.1897 18.7089 20.8516 19.1067 20.8054L19.2 20.8H27.2Z"
    fill="#7AB1E8" />
  <path
    d="M24.8 24.8C24.8 24.3581 24.4419 24 24 24H19.2L19.1067 24.0054C18.7089 24.0516 18.4 24.3897 18.4 24.8C18.4 25.2418 18.7582 25.6 19.2 25.6H24L24.0933 25.5946C24.4912 25.5484 24.8 25.2102 24.8 24.8Z"
    fill="#7AB1E8" />
  <path
    d="M44.8 40C45.2419 40 45.6 40.3581 45.6 40.8C45.6 41.2102 45.2912 41.5484 44.8933 41.5946L44.8 41.6H30.4C29.9582 41.6 29.6 41.2418 29.6 40.8C29.6 40.3897 29.9089 40.0516 30.3067 40.0054L30.4 40H44.8Z"
    fill="#7AB1E8" />
  <path
    d="M42.4 44C42.4 43.5581 42.0419 43.2 41.6 43.2H30.4L30.3067 43.2054C29.9089 43.2516 29.6 43.5897 29.6 44C29.6 44.4418 29.9582 44.8 30.4 44.8H41.6L41.6933 44.7946C42.0912 44.7484 42.4 44.4102 42.4 44Z"
    fill="#7AB1E8" />
  <path
    d="M40.8 33.7C41.2419 33.7 41.6 34.0582 41.6 34.5C41.6 34.9103 41.2912 35.2484 40.8933 35.2946L40.8 35.3H30.4C29.9582 35.3 29.6 34.9418 29.6 34.5C29.6 34.0897 29.9089 33.7516 30.3067 33.7054L30.4 33.7H40.8Z"
    fill="#7AB1E8" />
  <path
    d="M38.4 37.7C38.4 37.2582 38.0419 36.9 37.6 36.9H30.4L30.3067 36.9054C29.9089 36.9516 29.6 37.2897 29.6 37.7C29.6 38.1418 29.9582 38.5 30.4 38.5H37.6L37.6933 38.4946C38.0912 38.4484 38.4 38.1103 38.4 37.7Z"
    fill="#7AB1E8" />
  <path
    d="M25.6 9.59998C31.0833 9.59998 35.4304 12.8457 37.5424 18.1017C37.7071 18.5117 37.5083 18.9776 37.0983 19.1423C36.6884 19.307 36.2225 19.1082 36.0577 18.6983C34.1791 14.0229 30.3982 11.2 25.6 11.2C18.9726 11.2 13.6 16.5726 13.6 23.2C13.6 25.7726 14.4107 28.221 15.8926 30.256C16.0805 30.514 16.0954 30.8557 15.9391 31.1265L15.8806 31.214L12.8216 35.2H17.6C18.0103 35.2 18.3485 35.5088 18.3947 35.9067L18.4 36C18.4 36.4102 18.0912 36.7484 17.6933 36.7946L17.6 36.8H11.2C10.5669 36.8 10.1963 36.1068 10.5151 35.5861L10.5654 35.513L14.256 30.7024L14.2108 30.6355C12.8407 28.5414 12.069 26.1032 12.0045 23.549L12 23.2C12 15.6889 18.089 9.59998 25.6 9.59998Z"
    fill="#0063CB" />
  <path
    d="M37.6 22.4C46.4366 22.4 53.6 29.5634 53.6 38.4C53.6 40.9045 53.0235 43.3283 51.931 45.5225C51.7341 45.918 51.2538 46.079 50.8583 45.8821C50.4628 45.6851 50.3018 45.2049 50.4988 44.8093C51.4816 42.8355 52 40.6556 52 38.4C52 30.4471 45.5529 24 37.6 24C29.6471 24 23.2 30.4471 23.2 38.4C23.2 46.2645 29.5047 52.6565 37.3355 52.7976L37.6 52.8H51.3049L48.9344 49.2437C48.7068 48.9024 48.7762 48.4497 49.0816 48.1906L49.1563 48.1343C49.4977 47.9068 49.9503 47.9762 50.2095 48.2816L50.2657 48.3562L53.4657 53.1562C53.8032 53.6625 53.4736 54.3326 52.8895 54.3952L52.8 54.4H37.6C28.7635 54.4 21.6 47.2365 21.6 38.4C21.6 29.5634 28.7635 22.4 37.6 22.4Z"
    fill="#0063CB" />
  <path
    d="M44 15.2C44 15.6411 44.3589 16 44.8 16C45.2412 16 45.6 15.6411 45.6 15.2C45.6 14.7588 45.2412 14.4 44.8 14.4C44.3589 14.4 44 14.7588 44 15.2Z"
    fill="#0063CB" />
  <path
    d="M48 16C47.5589 16 47.2001 15.6411 47.2001 15.2C47.2001 14.7588 47.5589 14.4 48 14.4C48.4412 14.4 48.8 14.7588 48.8 15.2C48.8 15.6411 48.4412 16 48 16Z"
    fill="#0063CB" />
  <path
    d="M50.4001 15.2C50.4001 15.6411 50.7589 16 51.2001 16C51.6412 16 52 15.6411 52 15.2C52 14.7588 51.6412 14.4 51.2001 14.4C50.7589 14.4 50.4001 14.7588 50.4001 15.2Z"
    fill="#0063CB" />
  <path fill-rule="evenodd" clip-rule="evenodd"
    d="M54.4001 11.2H41.6C41.1582 11.2 40.8 11.5581 40.8 12V18.4L40.8054 18.4933C40.8516 18.8911 41.1898 19.2 41.6 19.2H47.668L50.6344 22.1657L50.702 22.2266C51.2116 22.6379 52 22.2817 52 21.6V19.2H54.4001C54.8419 19.2 55.2001 18.8418 55.2001 18.4V12C55.2001 11.5581 54.8419 11.2 54.4001 11.2ZM53.6 12.8V17.6H51.2001L51.1068 17.6054C50.7089 17.6516 50.4001 17.9897 50.4001 18.4V19.668L48.5657 17.8343L48.4865 17.7648C48.3476 17.6585 48.1769 17.6 48 17.6H42.4001V12.8H53.6Z"
    fill="#0063CB" />
  <path
    d="M12.8 46.4C13.2419 46.4 13.6 46.7581 13.6 47.2C13.6 47.6102 13.2912 47.9484 12.8933 47.9946L12.8 48H9.60005C9.15822 48 8.80005 47.6418 8.80005 47.2C8.80005 46.7897 9.10888 46.4516 9.50675 46.4054L9.60005 46.4H12.8Z"
    fill="#0063CB" />
  <path
    d="M15.2 47.2C15.2 47.6411 15.5589 48 16 48C16.4412 48 16.8 47.6411 16.8 47.2C16.8 46.7588 16.4412 46.4 16 46.4C15.5589 46.4 15.2 46.7588 15.2 47.2Z"
    fill="#0063CB" />
  <path
    d="M19.2 48C18.7589 48 18.4 47.6411 18.4 47.2C18.4 46.7588 18.7589 46.4 19.2 46.4C19.6412 46.4 20 46.7588 20 47.2C20 47.6411 19.6412 48 19.2 48Z"
    fill="#0063CB" />
</svg>
