<svg width="64" height="64" viewBox="0 0 64 64" fill="none" xmlns="http://www.w3.org/2000/svg">
<path fill-rule="evenodd" clip-rule="evenodd" d="M31.7055 4.53131C16.6975 4.53131 4.53106 16.6977 4.53106 31.7058C4.53106 34.2735 4.88675 36.7558 5.55075 39.1071H10.6429C11.5406 39.1071 12.2684 39.8349 12.2684 40.7327C12.2684 41.6304 11.5406 42.3582 10.6429 42.3582H4.34855C3.64697 42.3582 3.02455 41.908 2.80482 41.2417C1.81498 38.2402 1.28003 35.0339 1.28003 31.7058C1.28003 14.9022 14.902 1.28027 31.7055 1.28027C48.5091 1.28027 62.1311 14.9022 62.1311 31.7058C62.1311 48.5093 48.5091 62.1313 31.7055 62.1313C27.0417 62.1313 22.6201 61.0809 18.6672 59.2035L18.6972 59.3988C18.8338 60.2861 18.2252 61.1161 17.3379 61.2527C16.4506 61.3893 15.6206 60.7807 15.484 59.8934L14.9548 56.4545C14.8409 55.7147 15.247 54.9927 15.9385 54.7058L19.0468 53.4163C19.876 53.0723 20.8271 53.4656 21.1712 54.2948C21.5083 55.1075 21.1373 56.0372 20.3418 56.3978C23.7982 57.9913 27.6465 58.8803 31.7055 58.8803C46.7136 58.8803 58.88 46.7138 58.88 31.7058C58.88 16.6977 46.7136 4.53131 31.7055 4.53131Z" fill="url(#paint0_angular_4_4992)"/>
<path fill-rule="evenodd" clip-rule="evenodd" d="M37.817 13.6261C37.8311 12.7385 38.5547 12.0264 39.4424 12.0264H42.4513C43.3336 12.0264 44.0548 12.7302 44.0764 13.6122L44.4463 28.7788L46.9369 27.6467C47.44 27.418 48.0249 27.4606 48.4896 27.7598C48.9542 28.059 49.235 28.5738 49.235 29.1265V32.3136L51.3043 31.4859C51.8051 31.2856 52.3727 31.3467 52.8193 31.6491C53.266 31.9515 53.5336 32.4558 53.5336 32.9952V39.9667C54.4313 39.9667 55.0656 40.6944 55.0656 41.5922C55.0656 42.4899 54.3378 43.2177 53.4401 43.2177H51.908C51.0103 43.2177 50.2825 42.4899 50.2825 41.5922V35.3961L48.2132 36.2238C47.7124 36.4241 47.1449 36.363 46.6982 36.0606C46.2516 35.7582 45.984 35.254 45.984 34.7146V31.6509L43.5538 32.7556C43.0571 32.9814 42.4802 32.9429 42.0179 32.6531C41.5555 32.3633 41.2694 31.8609 41.2561 31.3154L40.9724 19.6814L40.6378 40.7583C40.6237 41.6459 39.9002 42.358 39.0125 42.358H28.2662C27.5868 42.358 27.0047 41.9411 26.7618 41.3491C26.5189 41.9411 25.9368 42.358 25.2573 42.358H17.9498C17.0521 42.358 16.3243 41.6302 16.3243 40.7325V34.4251L14.4381 32.0673L12.2679 34.4786V40.7325C12.2679 41.6302 11.5401 42.358 10.6424 42.358C9.74461 42.358 9.01685 41.6302 9.01685 40.7325V33.8549C9.01685 33.4533 9.16549 33.0659 9.43413 32.7675L13.3028 28.4689C13.6221 28.1142 14.0811 27.9177 14.5582 27.9315C15.0353 27.9454 15.4822 28.1682 15.7803 28.5409L19.2191 32.8394C19.4497 33.1276 19.5753 33.4858 19.5753 33.8549V39.107H23.6318V34.7146C23.6318 34.0087 23.2878 33.3146 22.5691 32.551C21.9366 31.879 21.1679 31.3079 20.378 30.7209C20.2469 30.6236 20.1152 30.5257 19.9835 30.4269C19.4093 29.9963 19.0812 29.3656 18.8866 28.8528C18.6767 28.2997 18.5411 27.6669 18.4697 27.0125C18.327 25.704 18.4222 24.1353 18.8585 22.6083C19.295 21.0806 20.0997 19.5058 21.4481 18.3025C22.8239 17.0748 24.6661 16.3249 26.9767 16.3249C29.3284 16.3249 31.1699 17.1582 32.5052 18.4935C33.8042 19.7925 34.5331 21.4717 34.9009 23.0655C35.2695 24.663 35.303 26.2889 35.1142 27.6101C35.0202 28.2685 34.8632 28.9064 34.6297 29.4512C34.4274 29.9233 34.0375 30.6374 33.2917 31.0103C32.5928 31.3597 31.6754 31.9999 30.9544 32.766C30.1957 33.5721 29.8918 34.2601 29.8918 34.7146V39.107H37.4126L37.817 13.6261ZM26.774 33.6284C27.0747 32.396 27.8384 31.3332 28.587 30.5378C29.5161 29.5507 30.6473 28.7337 31.6223 28.2138C31.6283 28.2008 31.6347 28.1864 31.6416 28.1705C31.7305 27.9631 31.8287 27.6203 31.8959 27.1504C32.0295 26.2149 32.0092 24.993 31.7331 23.7965C31.4561 22.5962 30.9492 21.5352 30.2064 20.7923C29.4999 20.0859 28.4937 19.5759 26.9767 19.5759C25.4186 19.5759 24.3594 20.0618 23.6127 20.7281C22.8388 21.4188 22.3002 22.3963 21.9844 23.5014C21.6685 24.6073 21.6025 25.752 21.7016 26.6599C21.7511 27.1137 21.8372 27.4649 21.9261 27.6993C21.9622 27.7944 21.9916 27.8518 22.0085 27.8818C22.0947 27.9461 22.1855 28.0133 22.2801 28.0832C23.0569 28.6582 24.088 29.4213 24.9365 30.3229C25.7347 31.171 26.4978 32.2683 26.774 33.6284ZM31.5676 28.3137C31.5676 28.3137 31.5711 28.3071 31.5794 28.2967C31.5719 28.309 31.5676 28.3137 31.5676 28.3137Z" fill="url(#paint1_linear_4_4992)"/>
<defs>
<radialGradient id="paint0_angular_4_4992" cx="0" cy="0" r="1" gradientUnits="userSpaceOnUse" gradientTransform="translate(31.7055 31.7058) rotate(127.776) scale(36.4366)">
<stop stop-color="#61A0EA"/>
<stop offset="1" stop-color="#4EAB9A"/>
</radialGradient>
<linearGradient id="paint1_linear_4_4992" x1="18.0251" y1="39.6256" x2="48.2651" y2="40.3456" gradientUnits="userSpaceOnUse">
<stop stop-color="#60A2E4"/>
<stop offset="1" stop-color="#81C5B9"/>
</linearGradient>
</defs>
</svg>
